<?xml version="1.0" encoding="utf-8"?>
<svg xmlns="http://www.w3.org/2000/svg" xmlns:xlink="http://www.w3.org/1999/xlink" width="600" height="400" viewBox="0 0 2400 1600">
<defs>
  <clipPath id="clip570">
    <rect x="0" y="0" width="2400" height="1600"/>
  </clipPath>
</defs>
<path clip-path="url(#clip570)" d="
M0 1600 L2400 1600 L2400 0 L0 0  Z
  " fill="#ffffff" fill-rule="evenodd" fill-opacity="1"/>
<defs>
  <clipPath id="clip571">
    <rect x="480" y="0" width="1681" height="1600"/>
  </clipPath>
</defs>
<path clip-path="url(#clip570)" d="
M199.283 1486.45 L2352.76 1486.45 L2352.76 123.472 L199.283 123.472  Z
  " fill="#ffffff" fill-rule="evenodd" fill-opacity="1"/>
<defs>
  <clipPath id="clip572">
    <rect x="199" y="123" width="2154" height="1364"/>
  </clipPath>
</defs>
<polyline clip-path="url(#clip572)" style="stroke:#000000; stroke-linecap:butt; stroke-linejoin:round; stroke-width:2; stroke-opacity:0.1; fill:none" points="
  293.771,1486.45 293.771,123.472 
  "/>
<polyline clip-path="url(#clip572)" style="stroke:#000000; stroke-linecap:butt; stroke-linejoin:round; stroke-width:2; stroke-opacity:0.1; fill:none" points="
  772.916,1486.45 772.916,123.472 
  "/>
<polyline clip-path="url(#clip572)" style="stroke:#000000; stroke-linecap:butt; stroke-linejoin:round; stroke-width:2; stroke-opacity:0.1; fill:none" points="
  1252.06,1486.45 1252.06,123.472 
  "/>
<polyline clip-path="url(#clip572)" style="stroke:#000000; stroke-linecap:butt; stroke-linejoin:round; stroke-width:2; stroke-opacity:0.1; fill:none" points="
  1731.21,1486.45 1731.21,123.472 
  "/>
<polyline clip-path="url(#clip572)" style="stroke:#000000; stroke-linecap:butt; stroke-linejoin:round; stroke-width:2; stroke-opacity:0.1; fill:none" points="
  2210.35,1486.45 2210.35,123.472 
  "/>
<polyline clip-path="url(#clip570)" style="stroke:#000000; stroke-linecap:butt; stroke-linejoin:round; stroke-width:4; stroke-opacity:1; fill:none" points="
  199.283,1486.45 2352.76,1486.45 
  "/>
<polyline clip-path="url(#clip570)" style="stroke:#000000; stroke-linecap:butt; stroke-linejoin:round; stroke-width:4; stroke-opacity:1; fill:none" points="
  293.771,1486.45 293.771,1467.55 
  "/>
<polyline clip-path="url(#clip570)" style="stroke:#000000; stroke-linecap:butt; stroke-linejoin:round; stroke-width:4; stroke-opacity:1; fill:none" points="
  772.916,1486.45 772.916,1467.55 
  "/>
<polyline clip-path="url(#clip570)" style="stroke:#000000; stroke-linecap:butt; stroke-linejoin:round; stroke-width:4; stroke-opacity:1; fill:none" points="
  1252.06,1486.45 1252.06,1467.55 
  "/>
<polyline clip-path="url(#clip570)" style="stroke:#000000; stroke-linecap:butt; stroke-linejoin:round; stroke-width:4; stroke-opacity:1; fill:none" points="
  1731.21,1486.45 1731.21,1467.55 
  "/>
<polyline clip-path="url(#clip570)" style="stroke:#000000; stroke-linecap:butt; stroke-linejoin:round; stroke-width:4; stroke-opacity:1; fill:none" points="
  2210.35,1486.45 2210.35,1467.55 
  "/>
<path clip-path="url(#clip570)" d="M262.671 1532.02 L292.347 1532.02 L292.347 1535.95 L262.671 1535.95 L262.671 1532.02 Z" fill="#000000" fill-rule="evenodd" fill-opacity="1" /><path clip-path="url(#clip570)" d="M315.287 1518.36 L303.481 1536.81 L315.287 1536.81 L315.287 1518.36 M314.06 1514.29 L319.94 1514.29 L319.94 1536.81 L324.87 1536.81 L324.87 1540.7 L319.94 1540.7 L319.94 1548.85 L315.287 1548.85 L315.287 1540.7 L299.685 1540.7 L299.685 1536.19 L314.06 1514.29 Z" fill="#000000" fill-rule="evenodd" fill-opacity="1" /><path clip-path="url(#clip570)" d="M742.859 1532.02 L772.535 1532.02 L772.535 1535.95 L742.859 1535.95 L742.859 1532.02 Z" fill="#000000" fill-rule="evenodd" fill-opacity="1" /><path clip-path="url(#clip570)" d="M786.655 1544.91 L802.974 1544.91 L802.974 1548.85 L781.03 1548.85 L781.03 1544.91 Q783.692 1542.16 788.275 1537.53 Q792.882 1532.88 794.062 1531.53 Q796.308 1529.01 797.187 1527.27 Q798.09 1525.51 798.09 1523.82 Q798.09 1521.07 796.146 1519.33 Q794.224 1517.6 791.122 1517.6 Q788.923 1517.6 786.47 1518.36 Q784.039 1519.13 781.261 1520.68 L781.261 1515.95 Q784.085 1514.82 786.539 1514.24 Q788.993 1513.66 791.03 1513.66 Q796.4 1513.66 799.595 1516.35 Q802.789 1519.03 802.789 1523.52 Q802.789 1525.65 801.979 1527.57 Q801.192 1529.47 799.085 1532.07 Q798.507 1532.74 795.405 1535.95 Q792.303 1539.15 786.655 1544.91 Z" fill="#000000" fill-rule="evenodd" fill-opacity="1" /><path clip-path="url(#clip570)" d="M1252.06 1517.37 Q1248.45 1517.37 1246.62 1520.93 Q1244.82 1524.47 1244.82 1531.6 Q1244.82 1538.71 1246.62 1542.27 Q1248.45 1545.82 1252.06 1545.82 Q1255.7 1545.82 1257.5 1542.27 Q1259.33 1538.71 1259.33 1531.6 Q1259.33 1524.47 1257.5 1520.93 Q1255.7 1517.37 1252.06 1517.37 M1252.06 1513.66 Q1257.87 1513.66 1260.93 1518.27 Q1264.01 1522.85 1264.01 1531.6 Q1264.01 1540.33 1260.93 1544.94 Q1257.87 1549.52 1252.06 1549.52 Q1246.25 1549.52 1243.17 1544.94 Q1240.12 1540.33 1240.12 1531.6 Q1240.12 1522.85 1243.17 1518.27 Q1246.25 1513.66 1252.06 1513.66 Z" fill="#000000" fill-rule="evenodd" fill-opacity="1" /><path clip-path="url(#clip570)" d="M1725.86 1544.91 L1742.18 1544.91 L1742.18 1548.85 L1720.24 1548.85 L1720.24 1544.91 Q1722.9 1542.16 1727.48 1537.53 Q1732.09 1532.88 1733.27 1531.53 Q1735.51 1529.01 1736.39 1527.27 Q1737.3 1525.51 1737.3 1523.82 Q1737.3 1521.07 1735.35 1519.33 Q1733.43 1517.6 1730.33 1517.6 Q1728.13 1517.6 1725.68 1518.36 Q1723.25 1519.13 1720.47 1520.68 L1720.47 1515.95 Q1723.29 1514.82 1725.75 1514.24 Q1728.2 1513.66 1730.24 1513.66 Q1735.61 1513.66 1738.8 1516.35 Q1742 1519.03 1742 1523.52 Q1742 1525.65 1741.18 1527.57 Q1740.4 1529.47 1738.29 1532.07 Q1737.71 1532.74 1734.61 1535.95 Q1731.51 1539.15 1725.86 1544.91 Z" fill="#000000" fill-rule="evenodd" fill-opacity="1" /><path clip-path="url(#clip570)" d="M2213.36 1518.36 L2201.56 1536.81 L2213.36 1536.81 L2213.36 1518.36 M2212.14 1514.29 L2218.02 1514.29 L2218.02 1536.81 L2222.95 1536.81 L2222.95 1540.7 L2218.02 1540.7 L2218.02 1548.85 L2213.36 1548.85 L2213.36 1540.7 L2197.76 1540.7 L2197.76 1536.19 L2212.14 1514.29 Z" fill="#000000" fill-rule="evenodd" fill-opacity="1" /><polyline clip-path="url(#clip572)" style="stroke:#000000; stroke-linecap:butt; stroke-linejoin:round; stroke-width:2; stroke-opacity:0.1; fill:none" points="
  199.283,1447.87 2352.76,1447.87 
  "/>
<polyline clip-path="url(#clip572)" style="stroke:#000000; stroke-linecap:butt; stroke-linejoin:round; stroke-width:2; stroke-opacity:0.1; fill:none" points="
  199.283,1131.79 2352.76,1131.79 
  "/>
<polyline clip-path="url(#clip572)" style="stroke:#000000; stroke-linecap:butt; stroke-linejoin:round; stroke-width:2; stroke-opacity:0.1; fill:none" points="
  199.283,815.707 2352.76,815.707 
  "/>
<polyline clip-path="url(#clip572)" style="stroke:#000000; stroke-linecap:butt; stroke-linejoin:round; stroke-width:2; stroke-opacity:0.1; fill:none" points="
  199.283,499.624 2352.76,499.624 
  "/>
<polyline clip-path="url(#clip572)" style="stroke:#000000; stroke-linecap:butt; stroke-linejoin:round; stroke-width:2; stroke-opacity:0.1; fill:none" points="
  199.283,183.541 2352.76,183.541 
  "/>
<polyline clip-path="url(#clip570)" style="stroke:#000000; stroke-linecap:butt; stroke-linejoin:round; stroke-width:4; stroke-opacity:1; fill:none" points="
  199.283,1486.45 199.283,123.472 
  "/>
<polyline clip-path="url(#clip570)" style="stroke:#000000; stroke-linecap:butt; stroke-linejoin:round; stroke-width:4; stroke-opacity:1; fill:none" points="
  199.283,1447.87 218.181,1447.87 
  "/>
<polyline clip-path="url(#clip570)" style="stroke:#000000; stroke-linecap:butt; stroke-linejoin:round; stroke-width:4; stroke-opacity:1; fill:none" points="
  199.283,1131.79 218.181,1131.79 
  "/>
<polyline clip-path="url(#clip570)" style="stroke:#000000; stroke-linecap:butt; stroke-linejoin:round; stroke-width:4; stroke-opacity:1; fill:none" points="
  199.283,815.707 218.181,815.707 
  "/>
<polyline clip-path="url(#clip570)" style="stroke:#000000; stroke-linecap:butt; stroke-linejoin:round; stroke-width:4; stroke-opacity:1; fill:none" points="
  199.283,499.624 218.181,499.624 
  "/>
<polyline clip-path="url(#clip570)" style="stroke:#000000; stroke-linecap:butt; stroke-linejoin:round; stroke-width:4; stroke-opacity:1; fill:none" points="
  199.283,183.541 218.181,183.541 
  "/>
<path clip-path="url(#clip570)" d="M151.339 1433.67 Q147.728 1433.67 145.899 1437.24 Q144.093 1440.78 144.093 1447.91 Q144.093 1455.01 145.899 1458.58 Q147.728 1462.12 151.339 1462.12 Q154.973 1462.12 156.779 1458.58 Q158.607 1455.01 158.607 1447.91 Q158.607 1440.78 156.779 1437.24 Q154.973 1433.67 151.339 1433.67 M151.339 1429.97 Q157.149 1429.97 160.205 1434.57 Q163.283 1439.16 163.283 1447.91 Q163.283 1456.63 160.205 1461.24 Q157.149 1465.82 151.339 1465.82 Q145.529 1465.82 142.45 1461.24 Q139.394 1456.63 139.394 1447.91 Q139.394 1439.16 142.45 1434.57 Q145.529 1429.97 151.339 1429.97 Z" fill="#000000" fill-rule="evenodd" fill-opacity="1" /><path clip-path="url(#clip570)" d="M85.0429 1145.13 L101.362 1145.13 L101.362 1149.07 L79.4179 1149.07 L79.4179 1145.13 Q82.0799 1142.38 86.6632 1137.75 Q91.2697 1133.1 92.4502 1131.76 Q94.6956 1129.23 95.5752 1127.5 Q96.478 1125.74 96.478 1124.05 Q96.478 1121.29 94.5336 1119.56 Q92.6123 1117.82 89.5104 1117.82 Q87.3114 1117.82 84.8577 1118.58 Q82.4271 1119.35 79.6494 1120.9 L79.6494 1116.18 Q82.4734 1115.04 84.9271 1114.46 Q87.3808 1113.88 89.4178 1113.88 Q94.7882 1113.88 97.9826 1116.57 Q101.177 1119.26 101.177 1123.75 Q101.177 1125.88 100.367 1127.8 Q99.5798 1129.7 97.4734 1132.29 Q96.8947 1132.96 93.7928 1136.18 Q90.691 1139.37 85.0429 1145.13 Z" fill="#000000" fill-rule="evenodd" fill-opacity="1" /><path clip-path="url(#clip570)" d="M111.223 1114.51 L129.58 1114.51 L129.58 1118.45 L115.506 1118.45 L115.506 1126.92 Q116.524 1126.57 117.543 1126.41 Q118.561 1126.22 119.58 1126.22 Q125.367 1126.22 128.746 1129.39 Q132.126 1132.57 132.126 1137.98 Q132.126 1143.56 128.654 1146.66 Q125.182 1149.74 118.862 1149.74 Q116.686 1149.74 114.418 1149.37 Q112.172 1149 109.765 1148.26 L109.765 1143.56 Q111.848 1144.69 114.07 1145.25 Q116.293 1145.81 118.77 1145.81 Q122.774 1145.81 125.112 1143.7 Q127.45 1141.59 127.45 1137.98 Q127.45 1134.37 125.112 1132.26 Q122.774 1130.16 118.77 1130.16 Q116.895 1130.16 115.02 1130.57 Q113.168 1130.99 111.223 1131.87 L111.223 1114.51 Z" fill="#000000" fill-rule="evenodd" fill-opacity="1" /><path clip-path="url(#clip570)" d="M151.339 1117.59 Q147.728 1117.59 145.899 1121.15 Q144.093 1124.7 144.093 1131.82 Q144.093 1138.93 145.899 1142.5 Q147.728 1146.04 151.339 1146.04 Q154.973 1146.04 156.779 1142.5 Q158.607 1138.93 158.607 1131.82 Q158.607 1124.7 156.779 1121.15 Q154.973 1117.59 151.339 1117.59 M151.339 1113.88 Q157.149 1113.88 160.205 1118.49 Q163.283 1123.07 163.283 1131.82 Q163.283 1140.55 160.205 1145.16 Q157.149 1149.74 151.339 1149.74 Q145.529 1149.74 142.45 1145.16 Q139.394 1140.55 139.394 1131.82 Q139.394 1123.07 142.45 1118.49 Q145.529 1113.88 151.339 1113.88 Z" fill="#000000" fill-rule="evenodd" fill-opacity="1" /><path clip-path="url(#clip570)" d="M81.0614 798.427 L99.4178 798.427 L99.4178 802.362 L85.3438 802.362 L85.3438 810.834 Q86.3623 810.487 87.3808 810.325 Q88.3993 810.14 89.4178 810.14 Q95.2049 810.14 98.5845 813.311 Q101.964 816.482 101.964 821.899 Q101.964 827.478 98.4919 830.579 Q95.0197 833.658 88.7003 833.658 Q86.5243 833.658 84.2558 833.288 Q82.0105 832.917 79.6031 832.177 L79.6031 827.478 Q81.6864 828.612 83.9086 829.167 Q86.1308 829.723 88.6077 829.723 Q92.6123 829.723 94.9502 827.616 Q97.2882 825.51 97.2882 821.899 Q97.2882 818.288 94.9502 816.181 Q92.6123 814.075 88.6077 814.075 Q86.7327 814.075 84.8577 814.492 Q83.0058 814.908 81.0614 815.788 L81.0614 798.427 Z" fill="#000000" fill-rule="evenodd" fill-opacity="1" /><path clip-path="url(#clip570)" d="M121.177 801.506 Q117.566 801.506 115.737 805.07 Q113.932 808.612 113.932 815.742 Q113.932 822.848 115.737 826.413 Q117.566 829.954 121.177 829.954 Q124.811 829.954 126.617 826.413 Q128.445 822.848 128.445 815.742 Q128.445 808.612 126.617 805.07 Q124.811 801.506 121.177 801.506 M121.177 797.802 Q126.987 797.802 130.043 802.408 Q133.121 806.992 133.121 815.742 Q133.121 824.468 130.043 829.075 Q126.987 833.658 121.177 833.658 Q115.367 833.658 112.288 829.075 Q109.233 824.468 109.233 815.742 Q109.233 806.992 112.288 802.408 Q115.367 797.802 121.177 797.802 Z" fill="#000000" fill-rule="evenodd" fill-opacity="1" /><path clip-path="url(#clip570)" d="M151.339 801.506 Q147.728 801.506 145.899 805.07 Q144.093 808.612 144.093 815.742 Q144.093 822.848 145.899 826.413 Q147.728 829.954 151.339 829.954 Q154.973 829.954 156.779 826.413 Q158.607 822.848 158.607 815.742 Q158.607 808.612 156.779 805.07 Q154.973 801.506 151.339 801.506 M151.339 797.802 Q157.149 797.802 160.205 802.408 Q163.283 806.992 163.283 815.742 Q163.283 824.468 160.205 829.075 Q157.149 833.658 151.339 833.658 Q145.529 833.658 142.45 829.075 Q139.394 824.468 139.394 815.742 Q139.394 806.992 142.45 802.408 Q145.529 797.802 151.339 797.802 Z" fill="#000000" fill-rule="evenodd" fill-opacity="1" /><path clip-path="url(#clip570)" d="M79.8346 482.344 L102.057 482.344 L102.057 484.334 L89.5104 516.904 L84.6262 516.904 L96.4317 486.279 L79.8346 486.279 L79.8346 482.344 Z" fill="#000000" fill-rule="evenodd" fill-opacity="1" /><path clip-path="url(#clip570)" d="M111.223 482.344 L129.58 482.344 L129.58 486.279 L115.506 486.279 L115.506 494.751 Q116.524 494.404 117.543 494.242 Q118.561 494.057 119.58 494.057 Q125.367 494.057 128.746 497.228 Q132.126 500.399 132.126 505.816 Q132.126 511.394 128.654 514.496 Q125.182 517.575 118.862 517.575 Q116.686 517.575 114.418 517.205 Q112.172 516.834 109.765 516.094 L109.765 511.394 Q111.848 512.529 114.07 513.084 Q116.293 513.64 118.77 513.64 Q122.774 513.64 125.112 511.533 Q127.45 509.427 127.45 505.816 Q127.45 502.205 125.112 500.098 Q122.774 497.992 118.77 497.992 Q116.895 497.992 115.02 498.408 Q113.168 498.825 111.223 499.705 L111.223 482.344 Z" fill="#000000" fill-rule="evenodd" fill-opacity="1" /><path clip-path="url(#clip570)" d="M151.339 485.422 Q147.728 485.422 145.899 488.987 Q144.093 492.529 144.093 499.658 Q144.093 506.765 145.899 510.33 Q147.728 513.871 151.339 513.871 Q154.973 513.871 156.779 510.33 Q158.607 506.765 158.607 499.658 Q158.607 492.529 156.779 488.987 Q154.973 485.422 151.339 485.422 M151.339 481.719 Q157.149 481.719 160.205 486.325 Q163.283 490.908 163.283 499.658 Q163.283 508.385 160.205 512.992 Q157.149 517.575 151.339 517.575 Q145.529 517.575 142.45 512.992 Q139.394 508.385 139.394 499.658 Q139.394 490.908 142.45 486.325 Q145.529 481.719 151.339 481.719 Z" fill="#000000" fill-rule="evenodd" fill-opacity="1" /><path clip-path="url(#clip570)" d="M51.6634 196.885 L59.3023 196.885 L59.3023 170.52 L50.9921 172.186 L50.9921 167.927 L59.256 166.261 L63.9319 166.261 L63.9319 196.885 L71.5707 196.885 L71.5707 200.821 L51.6634 200.821 L51.6634 196.885 Z" fill="#000000" fill-rule="evenodd" fill-opacity="1" /><path clip-path="url(#clip570)" d="M91.0151 169.339 Q87.404 169.339 85.5753 172.904 Q83.7697 176.446 83.7697 183.575 Q83.7697 190.682 85.5753 194.247 Q87.404 197.788 91.0151 197.788 Q94.6493 197.788 96.4548 194.247 Q98.2835 190.682 98.2835 183.575 Q98.2835 176.446 96.4548 172.904 Q94.6493 169.339 91.0151 169.339 M91.0151 165.636 Q96.8252 165.636 99.8808 170.242 Q102.959 174.825 102.959 183.575 Q102.959 192.302 99.8808 196.909 Q96.8252 201.492 91.0151 201.492 Q85.2049 201.492 82.1262 196.909 Q79.0707 192.302 79.0707 183.575 Q79.0707 174.825 82.1262 170.242 Q85.2049 165.636 91.0151 165.636 Z" fill="#000000" fill-rule="evenodd" fill-opacity="1" /><path clip-path="url(#clip570)" d="M121.177 169.339 Q117.566 169.339 115.737 172.904 Q113.932 176.446 113.932 183.575 Q113.932 190.682 115.737 194.247 Q117.566 197.788 121.177 197.788 Q124.811 197.788 126.617 194.247 Q128.445 190.682 128.445 183.575 Q128.445 176.446 126.617 172.904 Q124.811 169.339 121.177 169.339 M121.177 165.636 Q126.987 165.636 130.043 170.242 Q133.121 174.825 133.121 183.575 Q133.121 192.302 130.043 196.909 Q126.987 201.492 121.177 201.492 Q115.367 201.492 112.288 196.909 Q109.233 192.302 109.233 183.575 Q109.233 174.825 112.288 170.242 Q115.367 165.636 121.177 165.636 Z" fill="#000000" fill-rule="evenodd" fill-opacity="1" /><path clip-path="url(#clip570)" d="M151.339 169.339 Q147.728 169.339 145.899 172.904 Q144.093 176.446 144.093 183.575 Q144.093 190.682 145.899 194.247 Q147.728 197.788 151.339 197.788 Q154.973 197.788 156.779 194.247 Q158.607 190.682 158.607 183.575 Q158.607 176.446 156.779 172.904 Q154.973 169.339 151.339 169.339 M151.339 165.636 Q157.149 165.636 160.205 170.242 Q163.283 174.825 163.283 183.575 Q163.283 192.302 160.205 196.909 Q157.149 201.492 151.339 201.492 Q145.529 201.492 142.45 196.909 Q139.394 192.302 139.394 183.575 Q139.394 174.825 142.45 170.242 Q145.529 165.636 151.339 165.636 Z" fill="#000000" fill-rule="evenodd" fill-opacity="1" /><path clip-path="url(#clip570)" d="M714.706 18.8205 L714.706 65.8515 L724.59 65.8515 Q737.108 65.8515 742.9 60.1802 Q748.734 54.509 748.734 42.2752 Q748.734 30.1225 742.9 24.4918 Q737.108 18.8205 724.59 18.8205 L714.706 18.8205 M706.523 12.096 L723.334 12.096 Q740.915 12.096 749.139 19.4281 Q757.362 26.7198 757.362 42.2752 Q757.362 57.9117 749.098 65.2439 Q740.834 72.576 723.334 72.576 L706.523 72.576 L706.523 12.096 Z" fill="#000000" fill-rule="evenodd" fill-opacity="1" /><path clip-path="url(#clip570)" d="M770.082 27.2059 L777.536 27.2059 L777.536 72.576 L770.082 72.576 L770.082 27.2059 M770.082 9.54393 L777.536 9.54393 L777.536 18.9825 L770.082 18.9825 L770.082 9.54393 Z" fill="#000000" fill-rule="evenodd" fill-opacity="1" /><path clip-path="url(#clip570)" d="M822.055 28.5427 L822.055 35.5912 Q818.895 33.9709 815.493 33.1607 Q812.09 32.3505 808.444 32.3505 Q802.894 32.3505 800.099 34.0519 Q797.344 35.7533 797.344 39.156 Q797.344 41.7486 799.329 43.2475 Q801.314 44.7058 807.31 46.0426 L809.862 46.6097 Q817.802 48.3111 821.123 51.4303 Q824.486 54.509 824.486 60.0587 Q824.486 66.3781 819.462 70.0644 Q814.48 73.7508 805.73 73.7508 Q802.084 73.7508 798.114 73.0216 Q794.185 72.3329 789.81 70.9151 L789.81 63.2184 Q793.942 65.3654 797.952 66.4591 Q801.962 67.5124 805.892 67.5124 Q811.158 67.5124 813.994 65.73 Q816.829 63.9071 816.829 60.6258 Q816.829 57.5877 814.763 55.9673 Q812.738 54.3469 805.811 52.8481 L803.218 52.2405 Q796.291 50.7821 793.213 47.7845 Q790.134 44.7463 790.134 39.4801 Q790.134 33.0797 794.671 29.5959 Q799.208 26.1121 807.553 26.1121 Q811.685 26.1121 815.33 26.7198 Q818.976 27.3274 822.055 28.5427 Z" fill="#000000" fill-rule="evenodd" fill-opacity="1" /><path clip-path="url(#clip570)" d="M843.727 14.324 L843.727 27.2059 L859.08 27.2059 L859.08 32.9987 L843.727 32.9987 L843.727 57.6282 Q843.727 63.1779 845.226 64.7578 Q846.765 66.3376 851.424 66.3376 L859.08 66.3376 L859.08 72.576 L851.424 72.576 Q842.796 72.576 839.514 69.3758 Q836.233 66.1351 836.233 57.6282 L836.233 32.9987 L830.764 32.9987 L830.764 27.2059 L836.233 27.2059 L836.233 14.324 L843.727 14.324 Z" fill="#000000" fill-rule="evenodd" fill-opacity="1" /><path clip-path="url(#clip570)" d="M895.174 34.1734 Q893.918 33.4443 892.419 33.1202 Q890.961 32.7556 889.178 32.7556 Q882.859 32.7556 879.456 36.8875 Q876.094 40.9789 876.094 48.6757 L876.094 72.576 L868.6 72.576 L868.6 27.2059 L876.094 27.2059 L876.094 34.2544 Q878.444 30.1225 882.211 28.1376 Q885.978 26.1121 891.366 26.1121 Q892.136 26.1121 893.067 26.2337 Q893.999 26.3147 895.133 26.5172 L895.174 34.1734 Z" fill="#000000" fill-rule="evenodd" fill-opacity="1" /><path clip-path="url(#clip570)" d="M902.992 27.2059 L910.446 27.2059 L910.446 72.576 L902.992 72.576 L902.992 27.2059 M902.992 9.54393 L910.446 9.54393 L910.446 18.9825 L902.992 18.9825 L902.992 9.54393 Z" fill="#000000" fill-rule="evenodd" fill-opacity="1" /><path clip-path="url(#clip570)" d="M958.611 49.9314 Q958.611 41.7081 955.208 37.0496 Q951.846 32.3505 945.932 32.3505 Q940.017 32.3505 936.615 37.0496 Q933.252 41.7081 933.252 49.9314 Q933.252 58.1548 936.615 62.8538 Q940.017 67.5124 945.932 67.5124 Q951.846 67.5124 955.208 62.8538 Q958.611 58.1548 958.611 49.9314 M933.252 34.0924 Q935.602 30.0415 939.167 28.0971 Q942.772 26.1121 947.755 26.1121 Q956.018 26.1121 961.163 32.6746 Q966.348 39.2371 966.348 49.9314 Q966.348 60.6258 961.163 67.1883 Q956.018 73.7508 947.755 73.7508 Q942.772 73.7508 939.167 71.8063 Q935.602 69.8214 933.252 65.7705 L933.252 72.576 L925.758 72.576 L925.758 9.54393 L933.252 9.54393 L933.252 34.0924 Z" fill="#000000" fill-rule="evenodd" fill-opacity="1" /><path clip-path="url(#clip570)" d="M977.934 54.671 L977.934 27.2059 L985.387 27.2059 L985.387 54.3874 Q985.387 60.8284 987.899 64.0691 Q990.411 67.2693 995.434 67.2693 Q1001.47 67.2693 1004.95 63.421 Q1008.48 59.5726 1008.48 52.9291 L1008.48 27.2059 L1015.93 27.2059 L1015.93 72.576 L1008.48 72.576 L1008.48 65.6084 Q1005.76 69.7404 1002.16 71.7658 Q998.593 73.7508 993.854 73.7508 Q986.036 73.7508 981.985 68.8897 Q977.934 64.0286 977.934 54.671 M996.689 26.1121 L996.689 26.1121 Z" fill="#000000" fill-rule="evenodd" fill-opacity="1" /><path clip-path="url(#clip570)" d="M1038.66 14.324 L1038.66 27.2059 L1054.01 27.2059 L1054.01 32.9987 L1038.66 32.9987 L1038.66 57.6282 Q1038.66 63.1779 1040.16 64.7578 Q1041.69 66.3376 1046.35 66.3376 L1054.01 66.3376 L1054.01 72.576 L1046.35 72.576 Q1037.73 72.576 1034.44 69.3758 Q1031.16 66.1351 1031.16 57.6282 L1031.16 32.9987 L1025.69 32.9987 L1025.69 27.2059 L1031.16 27.2059 L1031.16 14.324 L1038.66 14.324 Z" fill="#000000" fill-rule="evenodd" fill-opacity="1" /><path clip-path="url(#clip570)" d="M1063.81 27.2059 L1071.27 27.2059 L1071.27 72.576 L1063.81 72.576 L1063.81 27.2059 M1063.81 9.54393 L1071.27 9.54393 L1071.27 18.9825 L1063.81 18.9825 L1063.81 9.54393 Z" fill="#000000" fill-rule="evenodd" fill-opacity="1" /><path clip-path="url(#clip570)" d="M1104.44 32.4315 Q1098.45 32.4315 1094.96 37.1306 Q1091.48 41.7891 1091.48 49.9314 Q1091.48 58.0738 1094.92 62.7728 Q1098.41 67.4314 1104.44 67.4314 Q1110.4 67.4314 1113.88 62.7323 Q1117.37 58.0333 1117.37 49.9314 Q1117.37 41.8701 1113.88 37.1711 Q1110.4 32.4315 1104.44 32.4315 M1104.44 26.1121 Q1114.17 26.1121 1119.72 32.4315 Q1125.27 38.7509 1125.27 49.9314 Q1125.27 61.0714 1119.72 67.4314 Q1114.17 73.7508 1104.44 73.7508 Q1094.68 73.7508 1089.13 67.4314 Q1083.62 61.0714 1083.62 49.9314 Q1083.62 38.7509 1089.13 32.4315 Q1094.68 26.1121 1104.44 26.1121 Z" fill="#000000" fill-rule="evenodd" fill-opacity="1" /><path clip-path="url(#clip570)" d="M1175.33 45.1919 L1175.33 72.576 L1167.88 72.576 L1167.88 45.4349 Q1167.88 38.994 1165.37 35.7938 Q1162.86 32.5936 1157.83 32.5936 Q1151.8 32.5936 1148.31 36.4419 Q1144.83 40.2903 1144.83 46.9338 L1144.83 72.576 L1137.34 72.576 L1137.34 27.2059 L1144.83 27.2059 L1144.83 34.2544 Q1147.5 30.163 1151.11 28.1376 Q1154.76 26.1121 1159.5 26.1121 Q1167.31 26.1121 1171.32 30.9732 Q1175.33 35.7938 1175.33 45.1919 Z" fill="#000000" fill-rule="evenodd" fill-opacity="1" /><path clip-path="url(#clip570)" d="M1234.15 32.4315 Q1228.16 32.4315 1224.67 37.1306 Q1221.19 41.7891 1221.19 49.9314 Q1221.19 58.0738 1224.63 62.7728 Q1228.12 67.4314 1234.15 67.4314 Q1240.11 67.4314 1243.59 62.7323 Q1247.08 58.0333 1247.08 49.9314 Q1247.08 41.8701 1243.59 37.1711 Q1240.11 32.4315 1234.15 32.4315 M1234.15 26.1121 Q1243.88 26.1121 1249.43 32.4315 Q1254.98 38.7509 1254.98 49.9314 Q1254.98 61.0714 1249.43 67.4314 Q1243.88 73.7508 1234.15 73.7508 Q1224.39 73.7508 1218.84 67.4314 Q1213.33 61.0714 1213.33 49.9314 Q1213.33 38.7509 1218.84 32.4315 Q1224.39 26.1121 1234.15 26.1121 Z" fill="#000000" fill-rule="evenodd" fill-opacity="1" /><path clip-path="url(#clip570)" d="M1290.3 9.54393 L1290.3 15.7418 L1283.17 15.7418 Q1279.16 15.7418 1277.58 17.3622 Q1276.04 18.9825 1276.04 23.1955 L1276.04 27.2059 L1288.31 27.2059 L1288.31 32.9987 L1276.04 32.9987 L1276.04 72.576 L1268.55 72.576 L1268.55 32.9987 L1261.42 32.9987 L1261.42 27.2059 L1268.55 27.2059 L1268.55 24.0462 Q1268.55 16.471 1272.07 13.0277 Q1275.59 9.54393 1283.25 9.54393 L1290.3 9.54393 Z" fill="#000000" fill-rule="evenodd" fill-opacity="1" /><path clip-path="url(#clip570)" d="M1330.28 14.324 L1330.28 27.2059 L1345.63 27.2059 L1345.63 32.9987 L1330.28 32.9987 L1330.28 57.6282 Q1330.28 63.1779 1331.78 64.7578 Q1333.32 66.3376 1337.98 66.3376 L1345.63 66.3376 L1345.63 72.576 L1337.98 72.576 Q1329.35 72.576 1326.07 69.3758 Q1322.79 66.1351 1322.79 57.6282 L1322.79 32.9987 L1317.32 32.9987 L1317.32 27.2059 L1322.79 27.2059 L1322.79 14.324 L1330.28 14.324 Z" fill="#000000" fill-rule="evenodd" fill-opacity="1" /><path clip-path="url(#clip570)" d="M1393.15 45.1919 L1393.15 72.576 L1385.7 72.576 L1385.7 45.4349 Q1385.7 38.994 1383.19 35.7938 Q1380.67 32.5936 1375.65 32.5936 Q1369.62 32.5936 1366.13 36.4419 Q1362.65 40.2903 1362.65 46.9338 L1362.65 72.576 L1355.15 72.576 L1355.15 9.54393 L1362.65 9.54393 L1362.65 34.2544 Q1365.32 30.163 1368.93 28.1376 Q1372.57 26.1121 1377.31 26.1121 Q1385.13 26.1121 1389.14 30.9732 Q1393.15 35.7938 1393.15 45.1919 Z" fill="#000000" fill-rule="evenodd" fill-opacity="1" /><path clip-path="url(#clip570)" d="M1446.83 48.0275 L1446.83 51.6733 L1412.56 51.6733 Q1413.04 59.3701 1417.17 63.421 Q1421.35 67.4314 1428.76 67.4314 Q1433.05 67.4314 1437.06 66.3781 Q1441.11 65.3249 1445.08 63.2184 L1445.08 70.267 Q1441.07 71.9684 1436.86 72.8596 Q1432.65 73.7508 1428.31 73.7508 Q1417.46 73.7508 1411.1 67.4314 Q1404.78 61.1119 1404.78 50.3365 Q1404.78 39.1965 1410.77 32.6746 Q1416.81 26.1121 1427.02 26.1121 Q1436.17 26.1121 1441.48 32.0264 Q1446.83 37.9003 1446.83 48.0275 M1439.37 45.84 Q1439.29 39.7232 1435.93 36.0774 Q1432.61 32.4315 1427.1 32.4315 Q1420.86 32.4315 1417.09 35.9558 Q1413.37 39.4801 1412.8 45.8805 L1439.37 45.84 Z" fill="#000000" fill-rule="evenodd" fill-opacity="1" /><path clip-path="url(#clip570)" d="M1511.72 34.1734 Q1510.47 33.4443 1508.97 33.1202 Q1507.51 32.7556 1505.73 32.7556 Q1499.41 32.7556 1496 36.8875 Q1492.64 40.9789 1492.64 48.6757 L1492.64 72.576 L1485.15 72.576 L1485.15 27.2059 L1492.64 27.2059 L1492.64 34.2544 Q1494.99 30.1225 1498.76 28.1376 Q1502.53 26.1121 1507.91 26.1121 Q1508.68 26.1121 1509.61 26.2337 Q1510.55 26.3147 1511.68 26.5172 L1511.72 34.1734 Z" fill="#000000" fill-rule="evenodd" fill-opacity="1" /><path clip-path="url(#clip570)" d="M1556.52 48.0275 L1556.52 51.6733 L1522.25 51.6733 Q1522.74 59.3701 1526.87 63.421 Q1531.04 67.4314 1538.46 67.4314 Q1542.75 67.4314 1546.76 66.3781 Q1550.81 65.3249 1554.78 63.2184 L1554.78 70.267 Q1550.77 71.9684 1546.56 72.8596 Q1542.35 73.7508 1538.01 73.7508 Q1527.16 73.7508 1520.8 67.4314 Q1514.48 61.1119 1514.48 50.3365 Q1514.48 39.1965 1520.47 32.6746 Q1526.51 26.1121 1536.72 26.1121 Q1545.87 26.1121 1551.18 32.0264 Q1556.52 37.9003 1556.52 48.0275 M1549.07 45.84 Q1548.99 39.7232 1545.63 36.0774 Q1542.31 32.4315 1536.8 32.4315 Q1530.56 32.4315 1526.79 35.9558 Q1523.06 39.4801 1522.5 45.8805 L1549.07 45.84 Z" fill="#000000" fill-rule="evenodd" fill-opacity="1" /><path clip-path="url(#clip570)" d="M1597.68 28.5427 L1597.68 35.5912 Q1594.52 33.9709 1591.12 33.1607 Q1587.72 32.3505 1584.07 32.3505 Q1578.52 32.3505 1575.73 34.0519 Q1572.97 35.7533 1572.97 39.156 Q1572.97 41.7486 1574.96 43.2475 Q1576.94 44.7058 1582.94 46.0426 L1585.49 46.6097 Q1593.43 48.3111 1596.75 51.4303 Q1600.11 54.509 1600.11 60.0587 Q1600.11 66.3781 1595.09 70.0644 Q1590.11 73.7508 1581.36 73.7508 Q1577.71 73.7508 1573.74 73.0216 Q1569.81 72.3329 1565.44 70.9151 L1565.44 63.2184 Q1569.57 65.3654 1573.58 66.4591 Q1577.59 67.5124 1581.52 67.5124 Q1586.78 67.5124 1589.62 65.73 Q1592.46 63.9071 1592.46 60.6258 Q1592.46 57.5877 1590.39 55.9673 Q1588.36 54.3469 1581.44 52.8481 L1578.84 52.2405 Q1571.92 50.7821 1568.84 47.7845 Q1565.76 44.7463 1565.76 39.4801 Q1565.76 33.0797 1570.3 29.5959 Q1574.83 26.1121 1583.18 26.1121 Q1587.31 26.1121 1590.96 26.7198 Q1594.6 27.3274 1597.68 28.5427 Z" fill="#000000" fill-rule="evenodd" fill-opacity="1" /><path clip-path="url(#clip570)" d="M1611.98 27.2059 L1619.43 27.2059 L1619.43 72.576 L1611.98 72.576 L1611.98 27.2059 M1611.98 9.54393 L1619.43 9.54393 L1619.43 18.9825 L1611.98 18.9825 L1611.98 9.54393 Z" fill="#000000" fill-rule="evenodd" fill-opacity="1" /><path clip-path="url(#clip570)" d="M1664.89 34.0924 L1664.89 9.54393 L1672.34 9.54393 L1672.34 72.576 L1664.89 72.576 L1664.89 65.7705 Q1662.54 69.8214 1658.93 71.8063 Q1655.37 73.7508 1650.34 73.7508 Q1642.12 73.7508 1636.93 67.1883 Q1631.79 60.6258 1631.79 49.9314 Q1631.79 39.2371 1636.93 32.6746 Q1642.12 26.1121 1650.34 26.1121 Q1655.37 26.1121 1658.93 28.0971 Q1662.54 30.0415 1664.89 34.0924 M1639.49 49.9314 Q1639.49 58.1548 1642.85 62.8538 Q1646.25 67.5124 1652.17 67.5124 Q1658.08 67.5124 1661.48 62.8538 Q1664.89 58.1548 1664.89 49.9314 Q1664.89 41.7081 1661.48 37.0496 Q1658.08 32.3505 1652.17 32.3505 Q1646.25 32.3505 1642.85 37.0496 Q1639.49 41.7081 1639.49 49.9314 Z" fill="#000000" fill-rule="evenodd" fill-opacity="1" /><path clip-path="url(#clip570)" d="M1686.92 54.671 L1686.92 27.2059 L1694.38 27.2059 L1694.38 54.3874 Q1694.38 60.8284 1696.89 64.0691 Q1699.4 67.2693 1704.42 67.2693 Q1710.46 67.2693 1713.94 63.421 Q1717.47 59.5726 1717.47 52.9291 L1717.47 27.2059 L1724.92 27.2059 L1724.92 72.576 L1717.47 72.576 L1717.47 65.6084 Q1714.75 69.7404 1711.15 71.7658 Q1707.58 73.7508 1702.84 73.7508 Q1695.02 73.7508 1690.97 68.8897 Q1686.92 64.0286 1686.92 54.671 M1705.68 26.1121 L1705.68 26.1121 Z" fill="#000000" fill-rule="evenodd" fill-opacity="1" /><path clip-path="url(#clip570)" d="M1760.89 49.7694 Q1751.86 49.7694 1748.38 51.8354 Q1744.89 53.9013 1744.89 58.8839 Q1744.89 62.8538 1747.48 65.2034 Q1750.12 67.5124 1754.61 67.5124 Q1760.81 67.5124 1764.54 63.1374 Q1768.31 58.7219 1768.31 51.4303 L1768.31 49.7694 L1760.89 49.7694 M1775.76 46.6907 L1775.76 72.576 L1768.31 72.576 L1768.31 65.6895 Q1765.75 69.8214 1761.95 71.8063 Q1758.14 73.7508 1752.63 73.7508 Q1745.66 73.7508 1741.53 69.8619 Q1737.44 65.9325 1737.44 59.3701 Q1737.44 51.7138 1742.54 47.825 Q1747.69 43.9361 1757.85 43.9361 L1768.31 43.9361 L1768.31 43.2069 Q1768.31 38.0623 1764.9 35.2672 Q1761.54 32.4315 1755.42 32.4315 Q1751.53 32.4315 1747.85 33.3632 Q1744.16 34.295 1740.76 36.1584 L1740.76 29.2718 Q1744.85 27.692 1748.7 26.9223 Q1752.55 26.1121 1756.19 26.1121 Q1766.04 26.1121 1770.9 31.2163 Q1775.76 36.3204 1775.76 46.6907 Z" fill="#000000" fill-rule="evenodd" fill-opacity="1" /><path clip-path="url(#clip570)" d="M1791.11 9.54393 L1798.57 9.54393 L1798.57 72.576 L1791.11 72.576 L1791.11 9.54393 Z" fill="#000000" fill-rule="evenodd" fill-opacity="1" /><path clip-path="url(#clip570)" d="M1843.09 28.5427 L1843.09 35.5912 Q1839.93 33.9709 1836.52 33.1607 Q1833.12 32.3505 1829.47 32.3505 Q1823.92 32.3505 1821.13 34.0519 Q1818.37 35.7533 1818.37 39.156 Q1818.37 41.7486 1820.36 43.2475 Q1822.34 44.7058 1828.34 46.0426 L1830.89 46.6097 Q1838.83 48.3111 1842.15 51.4303 Q1845.52 54.509 1845.52 60.0587 Q1845.52 66.3781 1840.49 70.0644 Q1835.51 73.7508 1826.76 73.7508 Q1823.11 73.7508 1819.14 73.0216 Q1815.22 72.3329 1810.84 70.9151 L1810.84 63.2184 Q1814.97 65.3654 1818.98 66.4591 Q1822.99 67.5124 1826.92 67.5124 Q1832.19 67.5124 1835.02 65.73 Q1837.86 63.9071 1837.86 60.6258 Q1837.86 57.5877 1835.79 55.9673 Q1833.77 54.3469 1826.84 52.8481 L1824.25 52.2405 Q1817.32 50.7821 1814.24 47.7845 Q1811.16 44.7463 1811.16 39.4801 Q1811.16 33.0797 1815.7 29.5959 Q1820.24 26.1121 1828.58 26.1121 Q1832.72 26.1121 1836.36 26.7198 Q1840.01 27.3274 1843.09 28.5427 Z" fill="#000000" fill-rule="evenodd" fill-opacity="1" /><path clip-path="url(#clip572)" d="
M317.728 1445.34 L317.728 1447.87 L341.685 1447.87 L341.685 1445.34 L317.728 1445.34 L317.728 1445.34  Z
  " fill="#009af9" fill-rule="evenodd" fill-opacity="1"/>
<polyline clip-path="url(#clip572)" style="stroke:#000000; stroke-linecap:butt; stroke-linejoin:round; stroke-width:4; stroke-opacity:1; fill:none" points="
  317.728,1445.34 317.728,1447.87 341.685,1447.87 341.685,1445.34 317.728,1445.34 
  "/>
<path clip-path="url(#clip572)" d="
M341.685 1447.87 L341.685 1447.87 L365.643 1447.87 L365.643 1447.87 L341.685 1447.87 L341.685 1447.87  Z
  " fill="#009af9" fill-rule="evenodd" fill-opacity="1"/>
<polyline clip-path="url(#clip572)" style="stroke:#000000; stroke-linecap:butt; stroke-linejoin:round; stroke-width:4; stroke-opacity:1; fill:none" points="
  341.685,1447.87 341.685,1447.87 365.643,1447.87 341.685,1447.87 
  "/>
<path clip-path="url(#clip572)" d="
M365.643 1445.34 L365.643 1447.87 L389.6 1447.87 L389.6 1445.34 L365.643 1445.34 L365.643 1445.34  Z
  " fill="#009af9" fill-rule="evenodd" fill-opacity="1"/>
<polyline clip-path="url(#clip572)" style="stroke:#000000; stroke-linecap:butt; stroke-linejoin:round; stroke-width:4; stroke-opacity:1; fill:none" points="
  365.643,1445.34 365.643,1447.87 389.6,1447.87 389.6,1445.34 365.643,1445.34 
  "/>
<path clip-path="url(#clip572)" d="
M389.6 1445.34 L389.6 1447.87 L413.557 1447.87 L413.557 1445.34 L389.6 1445.34 L389.6 1445.34  Z
  " fill="#009af9" fill-rule="evenodd" fill-opacity="1"/>
<polyline clip-path="url(#clip572)" style="stroke:#000000; stroke-linecap:butt; stroke-linejoin:round; stroke-width:4; stroke-opacity:1; fill:none" points="
  389.6,1445.34 389.6,1447.87 413.557,1447.87 413.557,1445.34 389.6,1445.34 
  "/>
<path clip-path="url(#clip572)" d="
M413.557 1445.34 L413.557 1447.87 L437.514 1447.87 L437.514 1445.34 L413.557 1445.34 L413.557 1445.34  Z
  " fill="#009af9" fill-rule="evenodd" fill-opacity="1"/>
<polyline clip-path="url(#clip572)" style="stroke:#000000; stroke-linecap:butt; stroke-linejoin:round; stroke-width:4; stroke-opacity:1; fill:none" points="
  413.557,1445.34 413.557,1447.87 437.514,1447.87 437.514,1445.34 413.557,1445.34 
  "/>
<path clip-path="url(#clip572)" d="
M437.514 1442.82 L437.514 1447.87 L461.472 1447.87 L461.472 1442.82 L437.514 1442.82 L437.514 1442.82  Z
  " fill="#009af9" fill-rule="evenodd" fill-opacity="1"/>
<polyline clip-path="url(#clip572)" style="stroke:#000000; stroke-linecap:butt; stroke-linejoin:round; stroke-width:4; stroke-opacity:1; fill:none" points="
  437.514,1442.82 437.514,1447.87 461.472,1447.87 461.472,1442.82 437.514,1442.82 
  "/>
<path clip-path="url(#clip572)" d="
M461.472 1444.08 L461.472 1447.87 L485.429 1447.87 L485.429 1444.08 L461.472 1444.08 L461.472 1444.08  Z
  " fill="#009af9" fill-rule="evenodd" fill-opacity="1"/>
<polyline clip-path="url(#clip572)" style="stroke:#000000; stroke-linecap:butt; stroke-linejoin:round; stroke-width:4; stroke-opacity:1; fill:none" points="
  461.472,1444.08 461.472,1447.87 485.429,1447.87 485.429,1444.08 461.472,1444.08 
  "/>
<path clip-path="url(#clip572)" d="
M485.429 1439.02 L485.429 1447.87 L509.386 1447.87 L509.386 1439.02 L485.429 1439.02 L485.429 1439.02  Z
  " fill="#009af9" fill-rule="evenodd" fill-opacity="1"/>
<polyline clip-path="url(#clip572)" style="stroke:#000000; stroke-linecap:butt; stroke-linejoin:round; stroke-width:4; stroke-opacity:1; fill:none" points="
  485.429,1439.02 485.429,1447.87 509.386,1447.87 509.386,1439.02 485.429,1439.02 
  "/>
<path clip-path="url(#clip572)" d="
M509.386 1435.23 L509.386 1447.87 L533.344 1447.87 L533.344 1435.23 L509.386 1435.23 L509.386 1435.23  Z
  " fill="#009af9" fill-rule="evenodd" fill-opacity="1"/>
<polyline clip-path="url(#clip572)" style="stroke:#000000; stroke-linecap:butt; stroke-linejoin:round; stroke-width:4; stroke-opacity:1; fill:none" points="
  509.386,1435.23 509.386,1447.87 533.344,1447.87 533.344,1435.23 509.386,1435.23 
  "/>
<path clip-path="url(#clip572)" d="
M533.344 1440.29 L533.344 1447.87 L557.301 1447.87 L557.301 1440.29 L533.344 1440.29 L533.344 1440.29  Z
  " fill="#009af9" fill-rule="evenodd" fill-opacity="1"/>
<polyline clip-path="url(#clip572)" style="stroke:#000000; stroke-linecap:butt; stroke-linejoin:round; stroke-width:4; stroke-opacity:1; fill:none" points="
  533.344,1440.29 533.344,1447.87 557.301,1447.87 557.301,1440.29 533.344,1440.29 
  "/>
<path clip-path="url(#clip572)" d="
M557.301 1428.91 L557.301 1447.87 L581.258 1447.87 L581.258 1428.91 L557.301 1428.91 L557.301 1428.91  Z
  " fill="#009af9" fill-rule="evenodd" fill-opacity="1"/>
<polyline clip-path="url(#clip572)" style="stroke:#000000; stroke-linecap:butt; stroke-linejoin:round; stroke-width:4; stroke-opacity:1; fill:none" points="
  557.301,1428.91 557.301,1447.87 581.258,1447.87 581.258,1428.91 557.301,1428.91 
  "/>
<path clip-path="url(#clip572)" d="
M581.258 1415 L581.258 1447.87 L605.215 1447.87 L605.215 1415 L581.258 1415 L581.258 1415  Z
  " fill="#009af9" fill-rule="evenodd" fill-opacity="1"/>
<polyline clip-path="url(#clip572)" style="stroke:#000000; stroke-linecap:butt; stroke-linejoin:round; stroke-width:4; stroke-opacity:1; fill:none" points="
  581.258,1415 581.258,1447.87 605.215,1447.87 605.215,1415 581.258,1415 
  "/>
<path clip-path="url(#clip572)" d="
M605.215 1420.06 L605.215 1447.87 L629.173 1447.87 L629.173 1420.06 L605.215 1420.06 L605.215 1420.06  Z
  " fill="#009af9" fill-rule="evenodd" fill-opacity="1"/>
<polyline clip-path="url(#clip572)" style="stroke:#000000; stroke-linecap:butt; stroke-linejoin:round; stroke-width:4; stroke-opacity:1; fill:none" points="
  605.215,1420.06 605.215,1447.87 629.173,1447.87 629.173,1420.06 605.215,1420.06 
  "/>
<path clip-path="url(#clip572)" d="
M629.173 1406.15 L629.173 1447.87 L653.13 1447.87 L653.13 1406.15 L629.173 1406.15 L629.173 1406.15  Z
  " fill="#009af9" fill-rule="evenodd" fill-opacity="1"/>
<polyline clip-path="url(#clip572)" style="stroke:#000000; stroke-linecap:butt; stroke-linejoin:round; stroke-width:4; stroke-opacity:1; fill:none" points="
  629.173,1406.15 629.173,1447.87 653.13,1447.87 653.13,1406.15 629.173,1406.15 
  "/>
<path clip-path="url(#clip572)" d="
M653.13 1372.01 L653.13 1447.87 L677.087 1447.87 L677.087 1372.01 L653.13 1372.01 L653.13 1372.01  Z
  " fill="#009af9" fill-rule="evenodd" fill-opacity="1"/>
<polyline clip-path="url(#clip572)" style="stroke:#000000; stroke-linecap:butt; stroke-linejoin:round; stroke-width:4; stroke-opacity:1; fill:none" points="
  653.13,1372.01 653.13,1447.87 677.087,1447.87 677.087,1372.01 653.13,1372.01 
  "/>
<path clip-path="url(#clip572)" d="
M677.087 1380.86 L677.087 1447.87 L701.045 1447.87 L701.045 1380.86 L677.087 1380.86 L677.087 1380.86  Z
  " fill="#009af9" fill-rule="evenodd" fill-opacity="1"/>
<polyline clip-path="url(#clip572)" style="stroke:#000000; stroke-linecap:butt; stroke-linejoin:round; stroke-width:4; stroke-opacity:1; fill:none" points="
  677.087,1380.86 677.087,1447.87 701.045,1447.87 701.045,1380.86 677.087,1380.86 
  "/>
<path clip-path="url(#clip572)" d="
M701.045 1364.43 L701.045 1447.87 L725.002 1447.87 L725.002 1364.43 L701.045 1364.43 L701.045 1364.43  Z
  " fill="#009af9" fill-rule="evenodd" fill-opacity="1"/>
<polyline clip-path="url(#clip572)" style="stroke:#000000; stroke-linecap:butt; stroke-linejoin:round; stroke-width:4; stroke-opacity:1; fill:none" points="
  701.045,1364.43 701.045,1447.87 725.002,1447.87 725.002,1364.43 701.045,1364.43 
  "/>
<path clip-path="url(#clip572)" d="
M725.002 1322.7 L725.002 1447.87 L748.959 1447.87 L748.959 1322.7 L725.002 1322.7 L725.002 1322.7  Z
  " fill="#009af9" fill-rule="evenodd" fill-opacity="1"/>
<polyline clip-path="url(#clip572)" style="stroke:#000000; stroke-linecap:butt; stroke-linejoin:round; stroke-width:4; stroke-opacity:1; fill:none" points="
  725.002,1322.7 725.002,1447.87 748.959,1447.87 748.959,1322.7 725.002,1322.7 
  "/>
<path clip-path="url(#clip572)" d="
M748.959 1306.27 L748.959 1447.87 L772.916 1447.87 L772.916 1306.27 L748.959 1306.27 L748.959 1306.27  Z
  " fill="#009af9" fill-rule="evenodd" fill-opacity="1"/>
<polyline clip-path="url(#clip572)" style="stroke:#000000; stroke-linecap:butt; stroke-linejoin:round; stroke-width:4; stroke-opacity:1; fill:none" points="
  748.959,1306.27 748.959,1447.87 772.916,1447.87 772.916,1306.27 748.959,1306.27 
  "/>
<path clip-path="url(#clip572)" d="
M772.916 1284.77 L772.916 1447.87 L796.874 1447.87 L796.874 1284.77 L772.916 1284.77 L772.916 1284.77  Z
  " fill="#009af9" fill-rule="evenodd" fill-opacity="1"/>
<polyline clip-path="url(#clip572)" style="stroke:#000000; stroke-linecap:butt; stroke-linejoin:round; stroke-width:4; stroke-opacity:1; fill:none" points="
  772.916,1284.77 772.916,1447.87 796.874,1447.87 796.874,1284.77 772.916,1284.77 
  "/>
<path clip-path="url(#clip572)" d="
M796.874 1219.03 L796.874 1447.87 L820.831 1447.87 L820.831 1219.03 L796.874 1219.03 L796.874 1219.03  Z
  " fill="#009af9" fill-rule="evenodd" fill-opacity="1"/>
<polyline clip-path="url(#clip572)" style="stroke:#000000; stroke-linecap:butt; stroke-linejoin:round; stroke-width:4; stroke-opacity:1; fill:none" points="
  796.874,1219.03 796.874,1447.87 820.831,1447.87 820.831,1219.03 796.874,1219.03 
  "/>
<path clip-path="url(#clip572)" d="
M820.831 1183.63 L820.831 1447.87 L844.788 1447.87 L844.788 1183.63 L820.831 1183.63 L820.831 1183.63  Z
  " fill="#009af9" fill-rule="evenodd" fill-opacity="1"/>
<polyline clip-path="url(#clip572)" style="stroke:#000000; stroke-linecap:butt; stroke-linejoin:round; stroke-width:4; stroke-opacity:1; fill:none" points="
  820.831,1183.63 820.831,1447.87 844.788,1447.87 844.788,1183.63 820.831,1183.63 
  "/>
<path clip-path="url(#clip572)" d="
M844.788 1120.41 L844.788 1447.87 L868.746 1447.87 L868.746 1120.41 L844.788 1120.41 L844.788 1120.41  Z
  " fill="#009af9" fill-rule="evenodd" fill-opacity="1"/>
<polyline clip-path="url(#clip572)" style="stroke:#000000; stroke-linecap:butt; stroke-linejoin:round; stroke-width:4; stroke-opacity:1; fill:none" points="
  844.788,1120.41 844.788,1447.87 868.746,1447.87 868.746,1120.41 844.788,1120.41 
  "/>
<path clip-path="url(#clip572)" d="
M868.746 1078.69 L868.746 1447.87 L892.703 1447.87 L892.703 1078.69 L868.746 1078.69 L868.746 1078.69  Z
  " fill="#009af9" fill-rule="evenodd" fill-opacity="1"/>
<polyline clip-path="url(#clip572)" style="stroke:#000000; stroke-linecap:butt; stroke-linejoin:round; stroke-width:4; stroke-opacity:1; fill:none" points="
  868.746,1078.69 868.746,1447.87 892.703,1447.87 892.703,1078.69 868.746,1078.69 
  "/>
<path clip-path="url(#clip572)" d="
M892.703 1001.56 L892.703 1447.87 L916.66 1447.87 L916.66 1001.56 L892.703 1001.56 L892.703 1001.56  Z
  " fill="#009af9" fill-rule="evenodd" fill-opacity="1"/>
<polyline clip-path="url(#clip572)" style="stroke:#000000; stroke-linecap:butt; stroke-linejoin:round; stroke-width:4; stroke-opacity:1; fill:none" points="
  892.703,1001.56 892.703,1447.87 916.66,1447.87 916.66,1001.56 892.703,1001.56 
  "/>
<path clip-path="url(#clip572)" d="
M916.66 902.946 L916.66 1447.87 L940.618 1447.87 L940.618 902.946 L916.66 902.946 L916.66 902.946  Z
  " fill="#009af9" fill-rule="evenodd" fill-opacity="1"/>
<polyline clip-path="url(#clip572)" style="stroke:#000000; stroke-linecap:butt; stroke-linejoin:round; stroke-width:4; stroke-opacity:1; fill:none" points="
  916.66,902.946 916.66,1447.87 940.618,1447.87 940.618,902.946 916.66,902.946 
  "/>
<path clip-path="url(#clip572)" d="
M940.618 852.372 L940.618 1447.87 L964.575 1447.87 L964.575 852.372 L940.618 852.372 L940.618 852.372  Z
  " fill="#009af9" fill-rule="evenodd" fill-opacity="1"/>
<polyline clip-path="url(#clip572)" style="stroke:#000000; stroke-linecap:butt; stroke-linejoin:round; stroke-width:4; stroke-opacity:1; fill:none" points="
  940.618,852.372 940.618,1447.87 964.575,1447.87 964.575,852.372 940.618,852.372 
  "/>
<path clip-path="url(#clip572)" d="
M964.575 809.385 L964.575 1447.87 L988.532 1447.87 L988.532 809.385 L964.575 809.385 L964.575 809.385  Z
  " fill="#009af9" fill-rule="evenodd" fill-opacity="1"/>
<polyline clip-path="url(#clip572)" style="stroke:#000000; stroke-linecap:butt; stroke-linejoin:round; stroke-width:4; stroke-opacity:1; fill:none" points="
  964.575,809.385 964.575,1447.87 988.532,1447.87 988.532,809.385 964.575,809.385 
  "/>
<path clip-path="url(#clip572)" d="
M988.532 725.939 L988.532 1447.87 L1012.49 1447.87 L1012.49 725.939 L988.532 725.939 L988.532 725.939  Z
  " fill="#009af9" fill-rule="evenodd" fill-opacity="1"/>
<polyline clip-path="url(#clip572)" style="stroke:#000000; stroke-linecap:butt; stroke-linejoin:round; stroke-width:4; stroke-opacity:1; fill:none" points="
  988.532,725.939 988.532,1447.87 1012.49,1447.87 1012.49,725.939 988.532,725.939 
  "/>
<path clip-path="url(#clip572)" d="
M1012.49 647.551 L1012.49 1447.87 L1036.45 1447.87 L1036.45 647.551 L1012.49 647.551 L1012.49 647.551  Z
  " fill="#009af9" fill-rule="evenodd" fill-opacity="1"/>
<polyline clip-path="url(#clip572)" style="stroke:#000000; stroke-linecap:butt; stroke-linejoin:round; stroke-width:4; stroke-opacity:1; fill:none" points="
  1012.49,647.551 1012.49,1447.87 1036.45,1447.87 1036.45,647.551 1012.49,647.551 
  "/>
<path clip-path="url(#clip572)" d="
M1036.45 509.738 L1036.45 1447.87 L1060.4 1447.87 L1060.4 509.738 L1036.45 509.738 L1036.45 509.738  Z
  " fill="#009af9" fill-rule="evenodd" fill-opacity="1"/>
<polyline clip-path="url(#clip572)" style="stroke:#000000; stroke-linecap:butt; stroke-linejoin:round; stroke-width:4; stroke-opacity:1; fill:none" points="
  1036.45,509.738 1036.45,1447.87 1060.4,1447.87 1060.4,509.738 1036.45,509.738 
  "/>
<path clip-path="url(#clip572)" d="
M1060.4 490.773 L1060.4 1447.87 L1084.36 1447.87 L1084.36 490.773 L1060.4 490.773 L1060.4 490.773  Z
  " fill="#009af9" fill-rule="evenodd" fill-opacity="1"/>
<polyline clip-path="url(#clip572)" style="stroke:#000000; stroke-linecap:butt; stroke-linejoin:round; stroke-width:4; stroke-opacity:1; fill:none" points="
  1060.4,490.773 1060.4,1447.87 1084.36,1447.87 1084.36,490.773 1060.4,490.773 
  "/>
<path clip-path="url(#clip572)" d="
M1084.36 397.213 L1084.36 1447.87 L1108.32 1447.87 L1108.32 397.213 L1084.36 397.213 L1084.36 397.213  Z
  " fill="#009af9" fill-rule="evenodd" fill-opacity="1"/>
<polyline clip-path="url(#clip572)" style="stroke:#000000; stroke-linecap:butt; stroke-linejoin:round; stroke-width:4; stroke-opacity:1; fill:none" points="
  1084.36,397.213 1084.36,1447.87 1108.32,1447.87 1108.32,397.213 1084.36,397.213 
  "/>
<path clip-path="url(#clip572)" d="
M1108.32 401.006 L1108.32 1447.87 L1132.28 1447.87 L1132.28 401.006 L1108.32 401.006 L1108.32 401.006  Z
  " fill="#009af9" fill-rule="evenodd" fill-opacity="1"/>
<polyline clip-path="url(#clip572)" style="stroke:#000000; stroke-linecap:butt; stroke-linejoin:round; stroke-width:4; stroke-opacity:1; fill:none" points="
  1108.32,401.006 1108.32,1447.87 1132.28,1447.87 1132.28,401.006 1108.32,401.006 
  "/>
<path clip-path="url(#clip572)" d="
M1132.28 287.216 L1132.28 1447.87 L1156.23 1447.87 L1156.23 287.216 L1132.28 287.216 L1132.28 287.216  Z
  " fill="#009af9" fill-rule="evenodd" fill-opacity="1"/>
<polyline clip-path="url(#clip572)" style="stroke:#000000; stroke-linecap:butt; stroke-linejoin:round; stroke-width:4; stroke-opacity:1; fill:none" points="
  1132.28,287.216 1132.28,1447.87 1156.23,1447.87 1156.23,287.216 1132.28,287.216 
  "/>
<path clip-path="url(#clip572)" d="
M1156.23 232.85 L1156.23 1447.87 L1180.19 1447.87 L1180.19 232.85 L1156.23 232.85 L1156.23 232.85  Z
  " fill="#009af9" fill-rule="evenodd" fill-opacity="1"/>
<polyline clip-path="url(#clip572)" style="stroke:#000000; stroke-linecap:butt; stroke-linejoin:round; stroke-width:4; stroke-opacity:1; fill:none" points="
  1156.23,232.85 1156.23,1447.87 1180.19,1447.87 1180.19,232.85 1156.23,232.85 
  "/>
<path clip-path="url(#clip572)" d="
M1180.19 240.436 L1180.19 1447.87 L1204.15 1447.87 L1204.15 240.436 L1180.19 240.436 L1180.19 240.436  Z
  " fill="#009af9" fill-rule="evenodd" fill-opacity="1"/>
<polyline clip-path="url(#clip572)" style="stroke:#000000; stroke-linecap:butt; stroke-linejoin:round; stroke-width:4; stroke-opacity:1; fill:none" points="
  1180.19,240.436 1180.19,1447.87 1204.15,1447.87 1204.15,240.436 1180.19,240.436 
  "/>
<path clip-path="url(#clip572)" d="
M1204.15 223.999 L1204.15 1447.87 L1228.1 1447.87 L1228.1 223.999 L1204.15 223.999 L1204.15 223.999  Z
  " fill="#009af9" fill-rule="evenodd" fill-opacity="1"/>
<polyline clip-path="url(#clip572)" style="stroke:#000000; stroke-linecap:butt; stroke-linejoin:round; stroke-width:4; stroke-opacity:1; fill:none" points="
  1204.15,223.999 1204.15,1447.87 1228.1,1447.87 1228.1,223.999 1204.15,223.999 
  "/>
<path clip-path="url(#clip572)" d="
M1228.1 227.792 L1228.1 1447.87 L1252.06 1447.87 L1252.06 227.792 L1228.1 227.792 L1228.1 227.792  Z
  " fill="#009af9" fill-rule="evenodd" fill-opacity="1"/>
<polyline clip-path="url(#clip572)" style="stroke:#000000; stroke-linecap:butt; stroke-linejoin:round; stroke-width:4; stroke-opacity:1; fill:none" points="
  1228.1,227.792 1228.1,1447.87 1252.06,1447.87 1252.06,227.792 1228.1,227.792 
  "/>
<path clip-path="url(#clip572)" d="
M1252.06 213.885 L1252.06 1447.87 L1276.02 1447.87 L1276.02 213.885 L1252.06 213.885 L1252.06 213.885  Z
  " fill="#009af9" fill-rule="evenodd" fill-opacity="1"/>
<polyline clip-path="url(#clip572)" style="stroke:#000000; stroke-linecap:butt; stroke-linejoin:round; stroke-width:4; stroke-opacity:1; fill:none" points="
  1252.06,213.885 1252.06,1447.87 1276.02,1447.87 1276.02,213.885 1252.06,213.885 
  "/>
<path clip-path="url(#clip572)" d="
M1276.02 201.241 L1276.02 1447.87 L1299.98 1447.87 L1299.98 201.241 L1276.02 201.241 L1276.02 201.241  Z
  " fill="#009af9" fill-rule="evenodd" fill-opacity="1"/>
<polyline clip-path="url(#clip572)" style="stroke:#000000; stroke-linecap:butt; stroke-linejoin:round; stroke-width:4; stroke-opacity:1; fill:none" points="
  1276.02,201.241 1276.02,1447.87 1299.98,1447.87 1299.98,201.241 1276.02,201.241 
  "/>
<path clip-path="url(#clip572)" d="
M1299.98 162.047 L1299.98 1447.87 L1323.93 1447.87 L1323.93 162.047 L1299.98 162.047 L1299.98 162.047  Z
  " fill="#009af9" fill-rule="evenodd" fill-opacity="1"/>
<polyline clip-path="url(#clip572)" style="stroke:#000000; stroke-linecap:butt; stroke-linejoin:round; stroke-width:4; stroke-opacity:1; fill:none" points="
  1299.98,162.047 1299.98,1447.87 1323.93,1447.87 1323.93,162.047 1299.98,162.047 
  "/>
<path clip-path="url(#clip572)" d="
M1323.93 273.308 L1323.93 1447.87 L1347.89 1447.87 L1347.89 273.308 L1323.93 273.308 L1323.93 273.308  Z
  " fill="#009af9" fill-rule="evenodd" fill-opacity="1"/>
<polyline clip-path="url(#clip572)" style="stroke:#000000; stroke-linecap:butt; stroke-linejoin:round; stroke-width:4; stroke-opacity:1; fill:none" points="
  1323.93,273.308 1323.93,1447.87 1347.89,1447.87 1347.89,273.308 1323.93,273.308 
  "/>
<path clip-path="url(#clip572)" d="
M1347.89 249.286 L1347.89 1447.87 L1371.85 1447.87 L1371.85 249.286 L1347.89 249.286 L1347.89 249.286  Z
  " fill="#009af9" fill-rule="evenodd" fill-opacity="1"/>
<polyline clip-path="url(#clip572)" style="stroke:#000000; stroke-linecap:butt; stroke-linejoin:round; stroke-width:4; stroke-opacity:1; fill:none" points="
  1347.89,249.286 1347.89,1447.87 1371.85,1447.87 1371.85,249.286 1347.89,249.286 
  "/>
<path clip-path="url(#clip572)" d="
M1371.85 297.33 L1371.85 1447.87 L1395.81 1447.87 L1395.81 297.33 L1371.85 297.33 L1371.85 297.33  Z
  " fill="#009af9" fill-rule="evenodd" fill-opacity="1"/>
<polyline clip-path="url(#clip572)" style="stroke:#000000; stroke-linecap:butt; stroke-linejoin:round; stroke-width:4; stroke-opacity:1; fill:none" points="
  1371.85,297.33 1371.85,1447.87 1395.81,1447.87 1395.81,297.33 1371.85,297.33 
  "/>
<path clip-path="url(#clip572)" d="
M1395.81 406.063 L1395.81 1447.87 L1419.76 1447.87 L1419.76 406.063 L1395.81 406.063 L1395.81 406.063  Z
  " fill="#009af9" fill-rule="evenodd" fill-opacity="1"/>
<polyline clip-path="url(#clip572)" style="stroke:#000000; stroke-linecap:butt; stroke-linejoin:round; stroke-width:4; stroke-opacity:1; fill:none" points="
  1395.81,406.063 1395.81,1447.87 1419.76,1447.87 1419.76,406.063 1395.81,406.063 
  "/>
<path clip-path="url(#clip572)" d="
M1419.76 488.245 L1419.76 1447.87 L1443.72 1447.87 L1443.72 488.245 L1419.76 488.245 L1419.76 488.245  Z
  " fill="#009af9" fill-rule="evenodd" fill-opacity="1"/>
<polyline clip-path="url(#clip572)" style="stroke:#000000; stroke-linecap:butt; stroke-linejoin:round; stroke-width:4; stroke-opacity:1; fill:none" points="
  1419.76,488.245 1419.76,1447.87 1443.72,1447.87 1443.72,488.245 1419.76,488.245 
  "/>
<path clip-path="url(#clip572)" d="
M1443.72 594.449 L1443.72 1447.87 L1467.68 1447.87 L1467.68 594.449 L1443.72 594.449 L1443.72 594.449  Z
  " fill="#009af9" fill-rule="evenodd" fill-opacity="1"/>
<polyline clip-path="url(#clip572)" style="stroke:#000000; stroke-linecap:butt; stroke-linejoin:round; stroke-width:4; stroke-opacity:1; fill:none" points="
  1443.72,594.449 1443.72,1447.87 1467.68,1447.87 1467.68,594.449 1443.72,594.449 
  "/>
<path clip-path="url(#clip572)" d="
M1467.68 628.586 L1467.68 1447.87 L1491.64 1447.87 L1491.64 628.586 L1467.68 628.586 L1467.68 628.586  Z
  " fill="#009af9" fill-rule="evenodd" fill-opacity="1"/>
<polyline clip-path="url(#clip572)" style="stroke:#000000; stroke-linecap:butt; stroke-linejoin:round; stroke-width:4; stroke-opacity:1; fill:none" points="
  1467.68,628.586 1467.68,1447.87 1491.64,1447.87 1491.64,628.586 1467.68,628.586 
  "/>
<path clip-path="url(#clip572)" d="
M1491.64 729.732 L1491.64 1447.87 L1515.59 1447.87 L1515.59 729.732 L1491.64 729.732 L1491.64 729.732  Z
  " fill="#009af9" fill-rule="evenodd" fill-opacity="1"/>
<polyline clip-path="url(#clip572)" style="stroke:#000000; stroke-linecap:butt; stroke-linejoin:round; stroke-width:4; stroke-opacity:1; fill:none" points="
  1491.64,729.732 1491.64,1447.87 1515.59,1447.87 1515.59,729.732 1491.64,729.732 
  "/>
<path clip-path="url(#clip572)" d="
M1515.59 830.879 L1515.59 1447.87 L1539.55 1447.87 L1539.55 830.879 L1515.59 830.879 L1515.59 830.879  Z
  " fill="#009af9" fill-rule="evenodd" fill-opacity="1"/>
<polyline clip-path="url(#clip572)" style="stroke:#000000; stroke-linecap:butt; stroke-linejoin:round; stroke-width:4; stroke-opacity:1; fill:none" points="
  1515.59,830.879 1515.59,1447.87 1539.55,1447.87 1539.55,830.879 1515.59,830.879 
  "/>
<path clip-path="url(#clip572)" d="
M1539.55 919.382 L1539.55 1447.87 L1563.51 1447.87 L1563.51 919.382 L1539.55 919.382 L1539.55 919.382  Z
  " fill="#009af9" fill-rule="evenodd" fill-opacity="1"/>
<polyline clip-path="url(#clip572)" style="stroke:#000000; stroke-linecap:butt; stroke-linejoin:round; stroke-width:4; stroke-opacity:1; fill:none" points="
  1539.55,919.382 1539.55,1447.87 1563.51,1447.87 1563.51,919.382 1539.55,919.382 
  "/>
<path clip-path="url(#clip572)" d="
M1563.51 950.99 L1563.51 1447.87 L1587.46 1447.87 L1587.46 950.99 L1563.51 950.99 L1563.51 950.99  Z
  " fill="#009af9" fill-rule="evenodd" fill-opacity="1"/>
<polyline clip-path="url(#clip572)" style="stroke:#000000; stroke-linecap:butt; stroke-linejoin:round; stroke-width:4; stroke-opacity:1; fill:none" points="
  1563.51,950.99 1563.51,1447.87 1587.46,1447.87 1587.46,950.99 1563.51,950.99 
  "/>
<path clip-path="url(#clip572)" d="
M1587.46 1047.08 L1587.46 1447.87 L1611.42 1447.87 L1611.42 1047.08 L1587.46 1047.08 L1587.46 1047.08  Z
  " fill="#009af9" fill-rule="evenodd" fill-opacity="1"/>
<polyline clip-path="url(#clip572)" style="stroke:#000000; stroke-linecap:butt; stroke-linejoin:round; stroke-width:4; stroke-opacity:1; fill:none" points="
  1587.46,1047.08 1587.46,1447.87 1611.42,1447.87 1611.42,1047.08 1587.46,1047.08 
  "/>
<path clip-path="url(#clip572)" d="
M1611.42 1116.62 L1611.42 1447.87 L1635.38 1447.87 L1635.38 1116.62 L1611.42 1116.62 L1611.42 1116.62  Z
  " fill="#009af9" fill-rule="evenodd" fill-opacity="1"/>
<polyline clip-path="url(#clip572)" style="stroke:#000000; stroke-linecap:butt; stroke-linejoin:round; stroke-width:4; stroke-opacity:1; fill:none" points="
  1611.42,1116.62 1611.42,1447.87 1635.38,1447.87 1635.38,1116.62 1611.42,1116.62 
  "/>
<path clip-path="url(#clip572)" d="
M1635.38 1081.22 L1635.38 1447.87 L1659.34 1447.87 L1659.34 1081.22 L1635.38 1081.22 L1635.38 1081.22  Z
  " fill="#009af9" fill-rule="evenodd" fill-opacity="1"/>
<polyline clip-path="url(#clip572)" style="stroke:#000000; stroke-linecap:butt; stroke-linejoin:round; stroke-width:4; stroke-opacity:1; fill:none" points="
  1635.38,1081.22 1635.38,1447.87 1659.34,1447.87 1659.34,1081.22 1635.38,1081.22 
  "/>
<path clip-path="url(#clip572)" d="
M1659.34 1187.42 L1659.34 1447.87 L1683.29 1447.87 L1683.29 1187.42 L1659.34 1187.42 L1659.34 1187.42  Z
  " fill="#009af9" fill-rule="evenodd" fill-opacity="1"/>
<polyline clip-path="url(#clip572)" style="stroke:#000000; stroke-linecap:butt; stroke-linejoin:round; stroke-width:4; stroke-opacity:1; fill:none" points="
  1659.34,1187.42 1659.34,1447.87 1683.29,1447.87 1683.29,1187.42 1659.34,1187.42 
  "/>
<path clip-path="url(#clip572)" d="
M1683.29 1220.29 L1683.29 1447.87 L1707.25 1447.87 L1707.25 1220.29 L1683.29 1220.29 L1683.29 1220.29  Z
  " fill="#009af9" fill-rule="evenodd" fill-opacity="1"/>
<polyline clip-path="url(#clip572)" style="stroke:#000000; stroke-linecap:butt; stroke-linejoin:round; stroke-width:4; stroke-opacity:1; fill:none" points="
  1683.29,1220.29 1683.29,1447.87 1707.25,1447.87 1707.25,1220.29 1683.29,1220.29 
  "/>
<path clip-path="url(#clip572)" d="
M1707.25 1263.28 L1707.25 1447.87 L1731.21 1447.87 L1731.21 1263.28 L1707.25 1263.28 L1707.25 1263.28  Z
  " fill="#009af9" fill-rule="evenodd" fill-opacity="1"/>
<polyline clip-path="url(#clip572)" style="stroke:#000000; stroke-linecap:butt; stroke-linejoin:round; stroke-width:4; stroke-opacity:1; fill:none" points="
  1707.25,1263.28 1707.25,1447.87 1731.21,1447.87 1731.21,1263.28 1707.25,1263.28 
  "/>
<path clip-path="url(#clip572)" d="
M1731.21 1305 L1731.21 1447.87 L1755.17 1447.87 L1755.17 1305 L1731.21 1305 L1731.21 1305  Z
  " fill="#009af9" fill-rule="evenodd" fill-opacity="1"/>
<polyline clip-path="url(#clip572)" style="stroke:#000000; stroke-linecap:butt; stroke-linejoin:round; stroke-width:4; stroke-opacity:1; fill:none" points="
  1731.21,1305 1731.21,1447.87 1755.17,1447.87 1755.17,1305 1731.21,1305 
  "/>
<path clip-path="url(#clip572)" d="
M1755.17 1317.65 L1755.17 1447.87 L1779.12 1447.87 L1779.12 1317.65 L1755.17 1317.65 L1755.17 1317.65  Z
  " fill="#009af9" fill-rule="evenodd" fill-opacity="1"/>
<polyline clip-path="url(#clip572)" style="stroke:#000000; stroke-linecap:butt; stroke-linejoin:round; stroke-width:4; stroke-opacity:1; fill:none" points="
  1755.17,1317.65 1755.17,1447.87 1779.12,1447.87 1779.12,1317.65 1755.17,1317.65 
  "/>
<path clip-path="url(#clip572)" d="
M1779.12 1342.93 L1779.12 1447.87 L1803.08 1447.87 L1803.08 1342.93 L1779.12 1342.93 L1779.12 1342.93  Z
  " fill="#009af9" fill-rule="evenodd" fill-opacity="1"/>
<polyline clip-path="url(#clip572)" style="stroke:#000000; stroke-linecap:butt; stroke-linejoin:round; stroke-width:4; stroke-opacity:1; fill:none" points="
  1779.12,1342.93 1779.12,1447.87 1803.08,1447.87 1803.08,1342.93 1779.12,1342.93 
  "/>
<path clip-path="url(#clip572)" d="
M1803.08 1366.96 L1803.08 1447.87 L1827.04 1447.87 L1827.04 1366.96 L1803.08 1366.96 L1803.08 1366.96  Z
  " fill="#009af9" fill-rule="evenodd" fill-opacity="1"/>
<polyline clip-path="url(#clip572)" style="stroke:#000000; stroke-linecap:butt; stroke-linejoin:round; stroke-width:4; stroke-opacity:1; fill:none" points="
  1803.08,1366.96 1803.08,1447.87 1827.04,1447.87 1827.04,1366.96 1803.08,1366.96 
  "/>
<path clip-path="url(#clip572)" d="
M1827.04 1375.81 L1827.04 1447.87 L1850.99 1447.87 L1850.99 1375.81 L1827.04 1375.81 L1827.04 1375.81  Z
  " fill="#009af9" fill-rule="evenodd" fill-opacity="1"/>
<polyline clip-path="url(#clip572)" style="stroke:#000000; stroke-linecap:butt; stroke-linejoin:round; stroke-width:4; stroke-opacity:1; fill:none" points="
  1827.04,1375.81 1827.04,1447.87 1850.99,1447.87 1850.99,1375.81 1827.04,1375.81 
  "/>
<path clip-path="url(#clip572)" d="
M1850.99 1403.62 L1850.99 1447.87 L1874.95 1447.87 L1874.95 1403.62 L1850.99 1403.62 L1850.99 1403.62  Z
  " fill="#009af9" fill-rule="evenodd" fill-opacity="1"/>
<polyline clip-path="url(#clip572)" style="stroke:#000000; stroke-linecap:butt; stroke-linejoin:round; stroke-width:4; stroke-opacity:1; fill:none" points="
  1850.99,1403.62 1850.99,1447.87 1874.95,1447.87 1874.95,1403.62 1850.99,1403.62 
  "/>
<path clip-path="url(#clip572)" d="
M1874.95 1411.21 L1874.95 1447.87 L1898.91 1447.87 L1898.91 1411.21 L1874.95 1411.21 L1874.95 1411.21  Z
  " fill="#009af9" fill-rule="evenodd" fill-opacity="1"/>
<polyline clip-path="url(#clip572)" style="stroke:#000000; stroke-linecap:butt; stroke-linejoin:round; stroke-width:4; stroke-opacity:1; fill:none" points="
  1874.95,1411.21 1874.95,1447.87 1898.91,1447.87 1898.91,1411.21 1874.95,1411.21 
  "/>
<path clip-path="url(#clip572)" d="
M1898.91 1408.68 L1898.91 1447.87 L1922.87 1447.87 L1922.87 1408.68 L1898.91 1408.68 L1898.91 1408.68  Z
  " fill="#009af9" fill-rule="evenodd" fill-opacity="1"/>
<polyline clip-path="url(#clip572)" style="stroke:#000000; stroke-linecap:butt; stroke-linejoin:round; stroke-width:4; stroke-opacity:1; fill:none" points="
  1898.91,1408.68 1898.91,1447.87 1922.87,1447.87 1922.87,1408.68 1898.91,1408.68 
  "/>
<path clip-path="url(#clip572)" d="
M1922.87 1431.44 L1922.87 1447.87 L1946.82 1447.87 L1946.82 1431.44 L1922.87 1431.44 L1922.87 1431.44  Z
  " fill="#009af9" fill-rule="evenodd" fill-opacity="1"/>
<polyline clip-path="url(#clip572)" style="stroke:#000000; stroke-linecap:butt; stroke-linejoin:round; stroke-width:4; stroke-opacity:1; fill:none" points="
  1922.87,1431.44 1922.87,1447.87 1946.82,1447.87 1946.82,1431.44 1922.87,1431.44 
  "/>
<path clip-path="url(#clip572)" d="
M1946.82 1435.23 L1946.82 1447.87 L1970.78 1447.87 L1970.78 1435.23 L1946.82 1435.23 L1946.82 1435.23  Z
  " fill="#009af9" fill-rule="evenodd" fill-opacity="1"/>
<polyline clip-path="url(#clip572)" style="stroke:#000000; stroke-linecap:butt; stroke-linejoin:round; stroke-width:4; stroke-opacity:1; fill:none" points="
  1946.82,1435.23 1946.82,1447.87 1970.78,1447.87 1970.78,1435.23 1946.82,1435.23 
  "/>
<path clip-path="url(#clip572)" d="
M1970.78 1435.23 L1970.78 1447.87 L1994.74 1447.87 L1994.74 1435.23 L1970.78 1435.23 L1970.78 1435.23  Z
  " fill="#009af9" fill-rule="evenodd" fill-opacity="1"/>
<polyline clip-path="url(#clip572)" style="stroke:#000000; stroke-linecap:butt; stroke-linejoin:round; stroke-width:4; stroke-opacity:1; fill:none" points="
  1970.78,1435.23 1970.78,1447.87 1994.74,1447.87 1994.74,1435.23 1970.78,1435.23 
  "/>
<path clip-path="url(#clip572)" d="
M1994.74 1436.49 L1994.74 1447.87 L2018.7 1447.87 L2018.7 1436.49 L1994.74 1436.49 L1994.74 1436.49  Z
  " fill="#009af9" fill-rule="evenodd" fill-opacity="1"/>
<polyline clip-path="url(#clip572)" style="stroke:#000000; stroke-linecap:butt; stroke-linejoin:round; stroke-width:4; stroke-opacity:1; fill:none" points="
  1994.74,1436.49 1994.74,1447.87 2018.7,1447.87 2018.7,1436.49 1994.74,1436.49 
  "/>
<path clip-path="url(#clip572)" d="
M2018.7 1445.34 L2018.7 1447.87 L2042.65 1447.87 L2042.65 1445.34 L2018.7 1445.34 L2018.7 1445.34  Z
  " fill="#009af9" fill-rule="evenodd" fill-opacity="1"/>
<polyline clip-path="url(#clip572)" style="stroke:#000000; stroke-linecap:butt; stroke-linejoin:round; stroke-width:4; stroke-opacity:1; fill:none" points="
  2018.7,1445.34 2018.7,1447.87 2042.65,1447.87 2042.65,1445.34 2018.7,1445.34 
  "/>
<path clip-path="url(#clip572)" d="
M2042.65 1444.08 L2042.65 1447.87 L2066.61 1447.87 L2066.61 1444.08 L2042.65 1444.08 L2042.65 1444.08  Z
  " fill="#009af9" fill-rule="evenodd" fill-opacity="1"/>
<polyline clip-path="url(#clip572)" style="stroke:#000000; stroke-linecap:butt; stroke-linejoin:round; stroke-width:4; stroke-opacity:1; fill:none" points="
  2042.65,1444.08 2042.65,1447.87 2066.61,1447.87 2066.61,1444.08 2042.65,1444.08 
  "/>
<path clip-path="url(#clip572)" d="
M2066.61 1440.29 L2066.61 1447.87 L2090.57 1447.87 L2090.57 1440.29 L2066.61 1440.29 L2066.61 1440.29  Z
  " fill="#009af9" fill-rule="evenodd" fill-opacity="1"/>
<polyline clip-path="url(#clip572)" style="stroke:#000000; stroke-linecap:butt; stroke-linejoin:round; stroke-width:4; stroke-opacity:1; fill:none" points="
  2066.61,1440.29 2066.61,1447.87 2090.57,1447.87 2090.57,1440.29 2066.61,1440.29 
  "/>
<path clip-path="url(#clip572)" d="
M2090.57 1444.08 L2090.57 1447.87 L2114.52 1447.87 L2114.52 1444.08 L2090.57 1444.08 L2090.57 1444.08  Z
  " fill="#009af9" fill-rule="evenodd" fill-opacity="1"/>
<polyline clip-path="url(#clip572)" style="stroke:#000000; stroke-linecap:butt; stroke-linejoin:round; stroke-width:4; stroke-opacity:1; fill:none" points="
  2090.57,1444.08 2090.57,1447.87 2114.52,1447.87 2114.52,1444.08 2090.57,1444.08 
  "/>
<path clip-path="url(#clip572)" d="
M2114.52 1444.08 L2114.52 1447.87 L2138.48 1447.87 L2138.48 1444.08 L2114.52 1444.08 L2114.52 1444.08  Z
  " fill="#009af9" fill-rule="evenodd" fill-opacity="1"/>
<polyline clip-path="url(#clip572)" style="stroke:#000000; stroke-linecap:butt; stroke-linejoin:round; stroke-width:4; stroke-opacity:1; fill:none" points="
  2114.52,1444.08 2114.52,1447.87 2138.48,1447.87 2138.48,1444.08 2114.52,1444.08 
  "/>
<path clip-path="url(#clip572)" d="
M2138.48 1446.61 L2138.48 1447.87 L2162.44 1447.87 L2162.44 1446.61 L2138.48 1446.61 L2138.48 1446.61  Z
  " fill="#009af9" fill-rule="evenodd" fill-opacity="1"/>
<polyline clip-path="url(#clip572)" style="stroke:#000000; stroke-linecap:butt; stroke-linejoin:round; stroke-width:4; stroke-opacity:1; fill:none" points="
  2138.48,1446.61 2138.48,1447.87 2162.44,1447.87 2162.44,1446.61 2138.48,1446.61 
  "/>
<path clip-path="url(#clip572)" d="
M2162.44 1446.61 L2162.44 1447.87 L2186.4 1447.87 L2186.4 1446.61 L2162.44 1446.61 L2162.44 1446.61  Z
  " fill="#009af9" fill-rule="evenodd" fill-opacity="1"/>
<polyline clip-path="url(#clip572)" style="stroke:#000000; stroke-linecap:butt; stroke-linejoin:round; stroke-width:4; stroke-opacity:1; fill:none" points="
  2162.44,1446.61 2162.44,1447.87 2186.4,1447.87 2186.4,1446.61 2162.44,1446.61 
  "/>
<path clip-path="url(#clip572)" d="
M2186.4 1447.87 L2186.4 1447.87 L2210.35 1447.87 L2210.35 1447.87 L2186.4 1447.87 L2186.4 1447.87  Z
  " fill="#009af9" fill-rule="evenodd" fill-opacity="1"/>
<polyline clip-path="url(#clip572)" style="stroke:#000000; stroke-linecap:butt; stroke-linejoin:round; stroke-width:4; stroke-opacity:1; fill:none" points="
  2186.4,1447.87 2186.4,1447.87 2210.35,1447.87 2186.4,1447.87 
  "/>
<path clip-path="url(#clip572)" d="
M2210.35 1446.61 L2210.35 1447.87 L2234.31 1447.87 L2234.31 1446.61 L2210.35 1446.61 L2210.35 1446.61  Z
  " fill="#009af9" fill-rule="evenodd" fill-opacity="1"/>
<polyline clip-path="url(#clip572)" style="stroke:#000000; stroke-linecap:butt; stroke-linejoin:round; stroke-width:4; stroke-opacity:1; fill:none" points="
  2210.35,1446.61 2210.35,1447.87 2234.31,1447.87 2234.31,1446.61 2210.35,1446.61 
  "/>
<circle clip-path="url(#clip572)" style="fill:#009af9; stroke:none; fill-opacity:0" cx="329.707" cy="1445.34" r="2"/>
<circle clip-path="url(#clip572)" style="fill:#009af9; stroke:none; fill-opacity:0" cx="353.664" cy="1447.87" r="2"/>
<circle clip-path="url(#clip572)" style="fill:#009af9; stroke:none; fill-opacity:0" cx="377.621" cy="1445.34" r="2"/>
<circle clip-path="url(#clip572)" style="fill:#009af9; stroke:none; fill-opacity:0" cx="401.579" cy="1445.34" r="2"/>
<circle clip-path="url(#clip572)" style="fill:#009af9; stroke:none; fill-opacity:0" cx="425.536" cy="1445.34" r="2"/>
<circle clip-path="url(#clip572)" style="fill:#009af9; stroke:none; fill-opacity:0" cx="449.493" cy="1442.82" r="2"/>
<circle clip-path="url(#clip572)" style="fill:#009af9; stroke:none; fill-opacity:0" cx="473.45" cy="1444.08" r="2"/>
<circle clip-path="url(#clip572)" style="fill:#009af9; stroke:none; fill-opacity:0" cx="497.408" cy="1439.02" r="2"/>
<circle clip-path="url(#clip572)" style="fill:#009af9; stroke:none; fill-opacity:0" cx="521.365" cy="1435.23" r="2"/>
<circle clip-path="url(#clip572)" style="fill:#009af9; stroke:none; fill-opacity:0" cx="545.322" cy="1440.29" r="2"/>
<circle clip-path="url(#clip572)" style="fill:#009af9; stroke:none; fill-opacity:0" cx="569.28" cy="1428.91" r="2"/>
<circle clip-path="url(#clip572)" style="fill:#009af9; stroke:none; fill-opacity:0" cx="593.237" cy="1415" r="2"/>
<circle clip-path="url(#clip572)" style="fill:#009af9; stroke:none; fill-opacity:0" cx="617.194" cy="1420.06" r="2"/>
<circle clip-path="url(#clip572)" style="fill:#009af9; stroke:none; fill-opacity:0" cx="641.151" cy="1406.15" r="2"/>
<circle clip-path="url(#clip572)" style="fill:#009af9; stroke:none; fill-opacity:0" cx="665.109" cy="1372.01" r="2"/>
<circle clip-path="url(#clip572)" style="fill:#009af9; stroke:none; fill-opacity:0" cx="689.066" cy="1380.86" r="2"/>
<circle clip-path="url(#clip572)" style="fill:#009af9; stroke:none; fill-opacity:0" cx="713.023" cy="1364.43" r="2"/>
<circle clip-path="url(#clip572)" style="fill:#009af9; stroke:none; fill-opacity:0" cx="736.981" cy="1322.7" r="2"/>
<circle clip-path="url(#clip572)" style="fill:#009af9; stroke:none; fill-opacity:0" cx="760.938" cy="1306.27" r="2"/>
<circle clip-path="url(#clip572)" style="fill:#009af9; stroke:none; fill-opacity:0" cx="784.895" cy="1284.77" r="2"/>
<circle clip-path="url(#clip572)" style="fill:#009af9; stroke:none; fill-opacity:0" cx="808.852" cy="1219.03" r="2"/>
<circle clip-path="url(#clip572)" style="fill:#009af9; stroke:none; fill-opacity:0" cx="832.81" cy="1183.63" r="2"/>
<circle clip-path="url(#clip572)" style="fill:#009af9; stroke:none; fill-opacity:0" cx="856.767" cy="1120.41" r="2"/>
<circle clip-path="url(#clip572)" style="fill:#009af9; stroke:none; fill-opacity:0" cx="880.724" cy="1078.69" r="2"/>
<circle clip-path="url(#clip572)" style="fill:#009af9; stroke:none; fill-opacity:0" cx="904.682" cy="1001.56" r="2"/>
<circle clip-path="url(#clip572)" style="fill:#009af9; stroke:none; fill-opacity:0" cx="928.639" cy="902.946" r="2"/>
<circle clip-path="url(#clip572)" style="fill:#009af9; stroke:none; fill-opacity:0" cx="952.596" cy="852.372" r="2"/>
<circle clip-path="url(#clip572)" style="fill:#009af9; stroke:none; fill-opacity:0" cx="976.553" cy="809.385" r="2"/>
<circle clip-path="url(#clip572)" style="fill:#009af9; stroke:none; fill-opacity:0" cx="1000.51" cy="725.939" r="2"/>
<circle clip-path="url(#clip572)" style="fill:#009af9; stroke:none; fill-opacity:0" cx="1024.47" cy="647.551" r="2"/>
<circle clip-path="url(#clip572)" style="fill:#009af9; stroke:none; fill-opacity:0" cx="1048.43" cy="509.738" r="2"/>
<circle clip-path="url(#clip572)" style="fill:#009af9; stroke:none; fill-opacity:0" cx="1072.38" cy="490.773" r="2"/>
<circle clip-path="url(#clip572)" style="fill:#009af9; stroke:none; fill-opacity:0" cx="1096.34" cy="397.213" r="2"/>
<circle clip-path="url(#clip572)" style="fill:#009af9; stroke:none; fill-opacity:0" cx="1120.3" cy="401.006" r="2"/>
<circle clip-path="url(#clip572)" style="fill:#009af9; stroke:none; fill-opacity:0" cx="1144.25" cy="287.216" r="2"/>
<circle clip-path="url(#clip572)" style="fill:#009af9; stroke:none; fill-opacity:0" cx="1168.21" cy="232.85" r="2"/>
<circle clip-path="url(#clip572)" style="fill:#009af9; stroke:none; fill-opacity:0" cx="1192.17" cy="240.436" r="2"/>
<circle clip-path="url(#clip572)" style="fill:#009af9; stroke:none; fill-opacity:0" cx="1216.13" cy="223.999" r="2"/>
<circle clip-path="url(#clip572)" style="fill:#009af9; stroke:none; fill-opacity:0" cx="1240.08" cy="227.792" r="2"/>
<circle clip-path="url(#clip572)" style="fill:#009af9; stroke:none; fill-opacity:0" cx="1264.04" cy="213.885" r="2"/>
<circle clip-path="url(#clip572)" style="fill:#009af9; stroke:none; fill-opacity:0" cx="1288" cy="201.241" r="2"/>
<circle clip-path="url(#clip572)" style="fill:#009af9; stroke:none; fill-opacity:0" cx="1311.96" cy="162.047" r="2"/>
<circle clip-path="url(#clip572)" style="fill:#009af9; stroke:none; fill-opacity:0" cx="1335.91" cy="273.308" r="2"/>
<circle clip-path="url(#clip572)" style="fill:#009af9; stroke:none; fill-opacity:0" cx="1359.87" cy="249.286" r="2"/>
<circle clip-path="url(#clip572)" style="fill:#009af9; stroke:none; fill-opacity:0" cx="1383.83" cy="297.33" r="2"/>
<circle clip-path="url(#clip572)" style="fill:#009af9; stroke:none; fill-opacity:0" cx="1407.78" cy="406.063" r="2"/>
<circle clip-path="url(#clip572)" style="fill:#009af9; stroke:none; fill-opacity:0" cx="1431.74" cy="488.245" r="2"/>
<circle clip-path="url(#clip572)" style="fill:#009af9; stroke:none; fill-opacity:0" cx="1455.7" cy="594.449" r="2"/>
<circle clip-path="url(#clip572)" style="fill:#009af9; stroke:none; fill-opacity:0" cx="1479.66" cy="628.586" r="2"/>
<circle clip-path="url(#clip572)" style="fill:#009af9; stroke:none; fill-opacity:0" cx="1503.61" cy="729.732" r="2"/>
<circle clip-path="url(#clip572)" style="fill:#009af9; stroke:none; fill-opacity:0" cx="1527.57" cy="830.879" r="2"/>
<circle clip-path="url(#clip572)" style="fill:#009af9; stroke:none; fill-opacity:0" cx="1551.53" cy="919.382" r="2"/>
<circle clip-path="url(#clip572)" style="fill:#009af9; stroke:none; fill-opacity:0" cx="1575.49" cy="950.99" r="2"/>
<circle clip-path="url(#clip572)" style="fill:#009af9; stroke:none; fill-opacity:0" cx="1599.44" cy="1047.08" r="2"/>
<circle clip-path="url(#clip572)" style="fill:#009af9; stroke:none; fill-opacity:0" cx="1623.4" cy="1116.62" r="2"/>
<circle clip-path="url(#clip572)" style="fill:#009af9; stroke:none; fill-opacity:0" cx="1647.36" cy="1081.22" r="2"/>
<circle clip-path="url(#clip572)" style="fill:#009af9; stroke:none; fill-opacity:0" cx="1671.31" cy="1187.42" r="2"/>
<circle clip-path="url(#clip572)" style="fill:#009af9; stroke:none; fill-opacity:0" cx="1695.27" cy="1220.29" r="2"/>
<circle clip-path="url(#clip572)" style="fill:#009af9; stroke:none; fill-opacity:0" cx="1719.23" cy="1263.28" r="2"/>
<circle clip-path="url(#clip572)" style="fill:#009af9; stroke:none; fill-opacity:0" cx="1743.19" cy="1305" r="2"/>
<circle clip-path="url(#clip572)" style="fill:#009af9; stroke:none; fill-opacity:0" cx="1767.14" cy="1317.65" r="2"/>
<circle clip-path="url(#clip572)" style="fill:#009af9; stroke:none; fill-opacity:0" cx="1791.1" cy="1342.93" r="2"/>
<circle clip-path="url(#clip572)" style="fill:#009af9; stroke:none; fill-opacity:0" cx="1815.06" cy="1366.96" r="2"/>
<circle clip-path="url(#clip572)" style="fill:#009af9; stroke:none; fill-opacity:0" cx="1839.02" cy="1375.81" r="2"/>
<circle clip-path="url(#clip572)" style="fill:#009af9; stroke:none; fill-opacity:0" cx="1862.97" cy="1403.62" r="2"/>
<circle clip-path="url(#clip572)" style="fill:#009af9; stroke:none; fill-opacity:0" cx="1886.93" cy="1411.21" r="2"/>
<circle clip-path="url(#clip572)" style="fill:#009af9; stroke:none; fill-opacity:0" cx="1910.89" cy="1408.68" r="2"/>
<circle clip-path="url(#clip572)" style="fill:#009af9; stroke:none; fill-opacity:0" cx="1934.84" cy="1431.44" r="2"/>
<circle clip-path="url(#clip572)" style="fill:#009af9; stroke:none; fill-opacity:0" cx="1958.8" cy="1435.23" r="2"/>
<circle clip-path="url(#clip572)" style="fill:#009af9; stroke:none; fill-opacity:0" cx="1982.76" cy="1435.23" r="2"/>
<circle clip-path="url(#clip572)" style="fill:#009af9; stroke:none; fill-opacity:0" cx="2006.72" cy="1436.49" r="2"/>
<circle clip-path="url(#clip572)" style="fill:#009af9; stroke:none; fill-opacity:0" cx="2030.67" cy="1445.34" r="2"/>
<circle clip-path="url(#clip572)" style="fill:#009af9; stroke:none; fill-opacity:0" cx="2054.63" cy="1444.08" r="2"/>
<circle clip-path="url(#clip572)" style="fill:#009af9; stroke:none; fill-opacity:0" cx="2078.59" cy="1440.29" r="2"/>
<circle clip-path="url(#clip572)" style="fill:#009af9; stroke:none; fill-opacity:0" cx="2102.55" cy="1444.08" r="2"/>
<circle clip-path="url(#clip572)" style="fill:#009af9; stroke:none; fill-opacity:0" cx="2126.5" cy="1444.08" r="2"/>
<circle clip-path="url(#clip572)" style="fill:#009af9; stroke:none; fill-opacity:0" cx="2150.46" cy="1446.61" r="2"/>
<circle clip-path="url(#clip572)" style="fill:#009af9; stroke:none; fill-opacity:0" cx="2174.42" cy="1446.61" r="2"/>
<circle clip-path="url(#clip572)" style="fill:#009af9; stroke:none; fill-opacity:0" cx="2198.38" cy="1447.87" r="2"/>
<circle clip-path="url(#clip572)" style="fill:#009af9; stroke:none; fill-opacity:0" cx="2222.33" cy="1446.61" r="2"/>
<path clip-path="url(#clip570)" d="
M1934.73 272.585 L2280.97 272.585 L2280.97 168.905 L1934.73 168.905  Z
  " fill="#ffffff" fill-rule="evenodd" fill-opacity="1"/>
<polyline clip-path="url(#clip570)" style="stroke:#000000; stroke-linecap:butt; stroke-linejoin:round; stroke-width:4; stroke-opacity:1; fill:none" points="
  1934.73,272.585 2280.97,272.585 2280.97,168.905 1934.73,168.905 1934.73,272.585 
  "/>
<path clip-path="url(#clip570)" d="
M1958.66 241.481 L2102.22 241.481 L2102.22 200.009 L1958.66 200.009 L1958.66 241.481  Z
  " fill="#009af9" fill-rule="evenodd" fill-opacity="1"/>
<polyline clip-path="url(#clip570)" style="stroke:#000000; stroke-linecap:butt; stroke-linejoin:round; stroke-width:4; stroke-opacity:1; fill:none" points="
  1958.66,241.481 2102.22,241.481 2102.22,200.009 1958.66,200.009 1958.66,241.481 
  "/>
<path clip-path="url(#clip570)" d="M2141.34 216.08 Q2140.62 215.664 2139.76 215.478 Q2138.93 215.27 2137.91 215.27 Q2134.3 215.27 2132.36 217.631 Q2130.43 219.969 2130.43 224.367 L2130.43 238.025 L2126.15 238.025 L2126.15 212.099 L2130.43 212.099 L2130.43 216.127 Q2131.78 213.766 2133.93 212.631 Q2136.08 211.474 2139.16 211.474 Q2139.6 211.474 2140.13 211.543 Q2140.67 211.59 2141.31 211.705 L2141.34 216.08 Z" fill="#000000" fill-rule="evenodd" fill-opacity="1" /><path clip-path="url(#clip570)" d="M2166.94 223.997 L2166.94 226.08 L2147.36 226.08 Q2147.63 230.478 2149.99 232.793 Q2152.38 235.085 2156.61 235.085 Q2159.07 235.085 2161.36 234.483 Q2163.67 233.881 2165.94 232.677 L2165.94 236.705 Q2163.65 237.677 2161.24 238.187 Q2158.84 238.696 2156.36 238.696 Q2150.16 238.696 2146.52 235.085 Q2142.91 231.474 2142.91 225.316 Q2142.91 218.951 2146.34 215.224 Q2149.79 211.474 2155.62 211.474 Q2160.85 211.474 2163.88 214.853 Q2166.94 218.21 2166.94 223.997 M2162.68 222.747 Q2162.63 219.252 2160.71 217.168 Q2158.81 215.085 2155.67 215.085 Q2152.1 215.085 2149.95 217.099 Q2147.82 219.113 2147.49 222.77 L2162.68 222.747 Z" fill="#000000" fill-rule="evenodd" fill-opacity="1" /><path clip-path="url(#clip570)" d="M2190.46 212.863 L2190.46 216.891 Q2188.65 215.965 2186.71 215.502 Q2184.76 215.039 2182.68 215.039 Q2179.51 215.039 2177.91 216.011 Q2176.34 216.983 2176.34 218.928 Q2176.34 220.409 2177.47 221.265 Q2178.6 222.099 2182.03 222.863 L2183.49 223.187 Q2188.03 224.159 2189.92 225.941 Q2191.85 227.701 2191.85 230.872 Q2191.85 234.483 2188.98 236.589 Q2186.13 238.696 2181.13 238.696 Q2179.04 238.696 2176.78 238.279 Q2174.53 237.886 2172.03 237.076 L2172.03 232.677 Q2174.39 233.904 2176.68 234.529 Q2178.98 235.131 2181.22 235.131 Q2184.23 235.131 2185.85 234.113 Q2187.47 233.071 2187.47 231.196 Q2187.47 229.46 2186.29 228.534 Q2185.13 227.608 2181.17 226.752 L2179.69 226.404 Q2175.73 225.571 2173.98 223.858 Q2172.22 222.122 2172.22 219.113 Q2172.22 215.455 2174.81 213.465 Q2177.4 211.474 2182.17 211.474 Q2184.53 211.474 2186.61 211.821 Q2188.7 212.168 2190.46 212.863 Z" fill="#000000" fill-rule="evenodd" fill-opacity="1" /><path clip-path="url(#clip570)" d="M2198.63 212.099 L2202.89 212.099 L2202.89 238.025 L2198.63 238.025 L2198.63 212.099 M2198.63 202.006 L2202.89 202.006 L2202.89 207.4 L2198.63 207.4 L2198.63 202.006 Z" fill="#000000" fill-rule="evenodd" fill-opacity="1" /><path clip-path="url(#clip570)" d="M2228.86 216.034 L2228.86 202.006 L2233.12 202.006 L2233.12 238.025 L2228.86 238.025 L2228.86 234.136 Q2227.52 236.451 2225.46 237.585 Q2223.42 238.696 2220.55 238.696 Q2215.85 238.696 2212.89 234.946 Q2209.95 231.196 2209.95 225.085 Q2209.95 218.974 2212.89 215.224 Q2215.85 211.474 2220.55 211.474 Q2223.42 211.474 2225.46 212.608 Q2227.52 213.719 2228.86 216.034 M2214.35 225.085 Q2214.35 229.784 2216.27 232.469 Q2218.21 235.131 2221.59 235.131 Q2224.97 235.131 2226.91 232.469 Q2228.86 229.784 2228.86 225.085 Q2228.86 220.386 2226.91 217.724 Q2224.97 215.039 2221.59 215.039 Q2218.21 215.039 2216.27 217.724 Q2214.35 220.386 2214.35 225.085 Z" fill="#000000" fill-rule="evenodd" fill-opacity="1" /></svg>
