<?xml version="1.0" encoding="utf-8"?>
<svg xmlns="http://www.w3.org/2000/svg" xmlns:xlink="http://www.w3.org/1999/xlink" width="600" height="400" viewBox="0 0 2400 1600">
<defs>
  <clipPath id="clip940">
    <rect x="0" y="0" width="2400" height="1600"/>
  </clipPath>
</defs>
<path clip-path="url(#clip940)" d="
M0 1600 L2400 1600 L2400 0 L0 0  Z
  " fill="#ffffff" fill-rule="evenodd" fill-opacity="1"/>
<defs>
  <clipPath id="clip941">
    <rect x="480" y="0" width="1681" height="1600"/>
  </clipPath>
</defs>
<path clip-path="url(#clip940)" d="
M155.927 1486.45 L2352.76 1486.45 L2352.76 123.472 L155.927 123.472  Z
  " fill="#ffffff" fill-rule="evenodd" fill-opacity="1"/>
<defs>
  <clipPath id="clip942">
    <rect x="155" y="123" width="2198" height="1364"/>
  </clipPath>
</defs>
<polyline clip-path="url(#clip942)" style="stroke:#000000; stroke-linecap:butt; stroke-linejoin:round; stroke-width:2; stroke-opacity:0.1; fill:none" points="
  218.101,1486.45 218.101,123.472 
  "/>
<polyline clip-path="url(#clip942)" style="stroke:#000000; stroke-linecap:butt; stroke-linejoin:round; stroke-width:2; stroke-opacity:0.1; fill:none" points="
  1254.34,1486.45 1254.34,123.472 
  "/>
<polyline clip-path="url(#clip942)" style="stroke:#000000; stroke-linecap:butt; stroke-linejoin:round; stroke-width:2; stroke-opacity:0.1; fill:none" points="
  2290.58,1486.45 2290.58,123.472 
  "/>
<polyline clip-path="url(#clip940)" style="stroke:#000000; stroke-linecap:butt; stroke-linejoin:round; stroke-width:4; stroke-opacity:1; fill:none" points="
  155.927,1486.45 2352.76,1486.45 
  "/>
<polyline clip-path="url(#clip940)" style="stroke:#000000; stroke-linecap:butt; stroke-linejoin:round; stroke-width:4; stroke-opacity:1; fill:none" points="
  218.101,1486.45 218.101,1467.55 
  "/>
<polyline clip-path="url(#clip940)" style="stroke:#000000; stroke-linecap:butt; stroke-linejoin:round; stroke-width:4; stroke-opacity:1; fill:none" points="
  1254.34,1486.45 1254.34,1467.55 
  "/>
<polyline clip-path="url(#clip940)" style="stroke:#000000; stroke-linecap:butt; stroke-linejoin:round; stroke-width:4; stroke-opacity:1; fill:none" points="
  2290.58,1486.45 2290.58,1467.55 
  "/>
<path clip-path="url(#clip940)" d="M113.391 1514.29 L142.627 1514.29 L142.627 1518.22 L130.359 1518.22 L130.359 1548.85 L125.66 1548.85 L125.66 1518.22 L113.391 1518.22 L113.391 1514.29 Z" fill="#000000" fill-rule="evenodd" fill-opacity="1" /><path clip-path="url(#clip940)" d="M148.947 1525.91 Q145.521 1525.91 143.53 1528.59 Q141.539 1531.26 141.539 1535.91 Q141.539 1540.56 143.507 1543.25 Q145.498 1545.91 148.947 1545.91 Q152.349 1545.91 154.34 1543.22 Q156.331 1540.54 156.331 1535.91 Q156.331 1531.3 154.34 1528.62 Q152.349 1525.91 148.947 1525.91 M148.947 1522.3 Q154.502 1522.3 157.673 1525.91 Q160.845 1529.52 160.845 1535.91 Q160.845 1542.27 157.673 1545.91 Q154.502 1549.52 148.947 1549.52 Q143.368 1549.52 140.197 1545.91 Q137.049 1542.27 137.049 1535.91 Q137.049 1529.52 140.197 1525.91 Q143.368 1522.3 148.947 1522.3 Z" fill="#000000" fill-rule="evenodd" fill-opacity="1" /><path clip-path="url(#clip940)" d="M172.118 1515.56 L172.118 1522.92 L180.891 1522.92 L180.891 1526.23 L172.118 1526.23 L172.118 1540.31 Q172.118 1543.48 172.974 1544.38 Q173.854 1545.28 176.516 1545.28 L180.891 1545.28 L180.891 1548.85 L176.516 1548.85 Q171.585 1548.85 169.71 1547.02 Q167.835 1545.17 167.835 1540.31 L167.835 1526.23 L164.71 1526.23 L164.71 1522.92 L167.835 1522.92 L167.835 1515.56 L172.118 1515.56 Z" fill="#000000" fill-rule="evenodd" fill-opacity="1" /><path clip-path="url(#clip940)" d="M198.275 1535.82 Q193.113 1535.82 191.122 1537 Q189.132 1538.18 189.132 1541.02 Q189.132 1543.29 190.613 1544.63 Q192.118 1545.95 194.687 1545.95 Q198.229 1545.95 200.358 1543.45 Q202.511 1540.93 202.511 1536.76 L202.511 1535.82 L198.275 1535.82 M206.77 1534.06 L206.77 1548.85 L202.511 1548.85 L202.511 1544.91 Q201.053 1547.27 198.877 1548.41 Q196.701 1549.52 193.553 1549.52 Q189.571 1549.52 187.21 1547.3 Q184.872 1545.05 184.872 1541.3 Q184.872 1536.93 187.789 1534.7 Q190.729 1532.48 196.539 1532.48 L202.511 1532.48 L202.511 1532.07 Q202.511 1529.13 200.567 1527.53 Q198.645 1525.91 195.15 1525.91 Q192.928 1525.91 190.821 1526.44 Q188.715 1526.97 186.77 1528.04 L186.77 1524.1 Q189.108 1523.2 191.308 1522.76 Q193.507 1522.3 195.59 1522.3 Q201.215 1522.3 203.993 1525.21 Q206.77 1528.13 206.77 1534.06 Z" fill="#000000" fill-rule="evenodd" fill-opacity="1" /><path clip-path="url(#clip940)" d="M215.543 1512.83 L219.803 1512.83 L219.803 1548.85 L215.543 1548.85 L215.543 1512.83 Z" fill="#000000" fill-rule="evenodd" fill-opacity="1" /><path clip-path="url(#clip940)" d="M248.414 1556.72 L248.414 1560.03 L223.784 1560.03 L223.784 1556.72 L248.414 1556.72 Z" fill="#000000" fill-rule="evenodd" fill-opacity="1" /><path clip-path="url(#clip940)" d="M278.483 1516.95 L278.483 1521.88 Q276.122 1519.68 273.437 1518.59 Q270.775 1517.51 267.765 1517.51 Q261.84 1517.51 258.691 1521.14 Q255.543 1524.75 255.543 1531.6 Q255.543 1538.43 258.691 1542.07 Q261.84 1545.68 267.765 1545.68 Q270.775 1545.68 273.437 1544.59 Q276.122 1543.5 278.483 1541.3 L278.483 1546.19 Q276.029 1547.85 273.275 1548.69 Q270.543 1549.52 267.488 1549.52 Q259.64 1549.52 255.127 1544.73 Q250.613 1539.91 250.613 1531.6 Q250.613 1523.27 255.127 1518.48 Q259.64 1513.66 267.488 1513.66 Q270.589 1513.66 273.321 1514.5 Q276.076 1515.31 278.483 1516.95 Z" fill="#000000" fill-rule="evenodd" fill-opacity="1" /><path clip-path="url(#clip940)" d="M286.608 1542.97 L291.492 1542.97 L291.492 1548.85 L286.608 1548.85 L286.608 1542.97 M286.608 1524.33 L291.492 1524.33 L291.492 1530.21 L286.608 1530.21 L286.608 1524.33 Z" fill="#000000" fill-rule="evenodd" fill-opacity="1" /><path clip-path="url(#clip940)" d="M302.904 1544.91 L310.543 1544.91 L310.543 1518.55 L302.233 1520.21 L302.233 1515.95 L310.497 1514.29 L315.173 1514.29 L315.173 1544.91 L322.811 1544.91 L322.811 1548.85 L302.904 1548.85 L302.904 1544.91 Z" fill="#000000" fill-rule="evenodd" fill-opacity="1" /><path clip-path="url(#clip940)" d="M1149.82 1514.29 L1179.05 1514.29 L1179.05 1518.22 L1166.78 1518.22 L1166.78 1548.85 L1162.08 1548.85 L1162.08 1518.22 L1149.82 1518.22 L1149.82 1514.29 Z" fill="#000000" fill-rule="evenodd" fill-opacity="1" /><path clip-path="url(#clip940)" d="M1185.37 1525.91 Q1181.95 1525.91 1179.96 1528.59 Q1177.96 1531.26 1177.96 1535.91 Q1177.96 1540.56 1179.93 1543.25 Q1181.92 1545.91 1185.37 1545.91 Q1188.77 1545.91 1190.77 1543.22 Q1192.76 1540.54 1192.76 1535.91 Q1192.76 1531.3 1190.77 1528.62 Q1188.77 1525.91 1185.37 1525.91 M1185.37 1522.3 Q1190.93 1522.3 1194.1 1525.91 Q1197.27 1529.52 1197.27 1535.91 Q1197.27 1542.27 1194.1 1545.91 Q1190.93 1549.52 1185.37 1549.52 Q1179.79 1549.52 1176.62 1545.91 Q1173.47 1542.27 1173.47 1535.91 Q1173.47 1529.52 1176.62 1525.91 Q1179.79 1522.3 1185.37 1522.3 Z" fill="#000000" fill-rule="evenodd" fill-opacity="1" /><path clip-path="url(#clip940)" d="M1208.54 1515.56 L1208.54 1522.92 L1217.32 1522.92 L1217.32 1526.23 L1208.54 1526.23 L1208.54 1540.31 Q1208.54 1543.48 1209.4 1544.38 Q1210.28 1545.28 1212.94 1545.28 L1217.32 1545.28 L1217.32 1548.85 L1212.94 1548.85 Q1208.01 1548.85 1206.14 1547.02 Q1204.26 1545.17 1204.26 1540.31 L1204.26 1526.23 L1201.14 1526.23 L1201.14 1522.92 L1204.26 1522.92 L1204.26 1515.56 L1208.54 1515.56 Z" fill="#000000" fill-rule="evenodd" fill-opacity="1" /><path clip-path="url(#clip940)" d="M1234.7 1535.82 Q1229.54 1535.82 1227.55 1537 Q1225.56 1538.18 1225.56 1541.02 Q1225.56 1543.29 1227.04 1544.63 Q1228.54 1545.95 1231.11 1545.95 Q1234.65 1545.95 1236.78 1543.45 Q1238.94 1540.93 1238.94 1536.76 L1238.94 1535.82 L1234.7 1535.82 M1243.2 1534.06 L1243.2 1548.85 L1238.94 1548.85 L1238.94 1544.91 Q1237.48 1547.27 1235.3 1548.41 Q1233.13 1549.52 1229.98 1549.52 Q1226 1549.52 1223.64 1547.3 Q1221.3 1545.05 1221.3 1541.3 Q1221.3 1536.93 1224.21 1534.7 Q1227.15 1532.48 1232.96 1532.48 L1238.94 1532.48 L1238.94 1532.07 Q1238.94 1529.13 1236.99 1527.53 Q1235.07 1525.91 1231.58 1525.91 Q1229.35 1525.91 1227.25 1526.44 Q1225.14 1526.97 1223.2 1528.04 L1223.2 1524.1 Q1225.53 1523.2 1227.73 1522.76 Q1229.93 1522.3 1232.02 1522.3 Q1237.64 1522.3 1240.42 1525.21 Q1243.2 1528.13 1243.2 1534.06 Z" fill="#000000" fill-rule="evenodd" fill-opacity="1" /><path clip-path="url(#clip940)" d="M1251.97 1512.83 L1256.23 1512.83 L1256.23 1548.85 L1251.97 1548.85 L1251.97 1512.83 Z" fill="#000000" fill-rule="evenodd" fill-opacity="1" /><path clip-path="url(#clip940)" d="M1284.84 1556.72 L1284.84 1560.03 L1260.21 1560.03 L1260.21 1556.72 L1284.84 1556.72 Z" fill="#000000" fill-rule="evenodd" fill-opacity="1" /><path clip-path="url(#clip940)" d="M1314.91 1516.95 L1314.91 1521.88 Q1312.55 1519.68 1309.86 1518.59 Q1307.2 1517.51 1304.19 1517.51 Q1298.26 1517.51 1295.12 1521.14 Q1291.97 1524.75 1291.97 1531.6 Q1291.97 1538.43 1295.12 1542.07 Q1298.26 1545.68 1304.19 1545.68 Q1307.2 1545.68 1309.86 1544.59 Q1312.55 1543.5 1314.91 1541.3 L1314.91 1546.19 Q1312.45 1547.85 1309.7 1548.69 Q1306.97 1549.52 1303.91 1549.52 Q1296.07 1549.52 1291.55 1544.73 Q1287.04 1539.91 1287.04 1531.6 Q1287.04 1523.27 1291.55 1518.48 Q1296.07 1513.66 1303.91 1513.66 Q1307.01 1513.66 1309.75 1514.5 Q1312.5 1515.31 1314.91 1516.95 Z" fill="#000000" fill-rule="evenodd" fill-opacity="1" /><path clip-path="url(#clip940)" d="M1323.03 1542.97 L1327.92 1542.97 L1327.92 1548.85 L1323.03 1548.85 L1323.03 1542.97 M1323.03 1524.33 L1327.92 1524.33 L1327.92 1530.21 L1323.03 1530.21 L1323.03 1524.33 Z" fill="#000000" fill-rule="evenodd" fill-opacity="1" /><path clip-path="url(#clip940)" d="M1342.55 1544.91 L1358.87 1544.91 L1358.87 1548.85 L1336.92 1548.85 L1336.92 1544.91 Q1339.58 1542.16 1344.17 1537.53 Q1348.77 1532.88 1349.95 1531.53 Q1352.2 1529.01 1353.08 1527.27 Q1353.98 1525.51 1353.98 1523.82 Q1353.98 1521.07 1352.04 1519.33 Q1350.12 1517.6 1347.01 1517.6 Q1344.82 1517.6 1342.36 1518.36 Q1339.93 1519.13 1337.15 1520.68 L1337.15 1515.95 Q1339.98 1514.82 1342.43 1514.24 Q1344.88 1513.66 1346.92 1513.66 Q1352.29 1513.66 1355.49 1516.35 Q1358.68 1519.03 1358.68 1523.52 Q1358.68 1525.65 1357.87 1527.57 Q1357.08 1529.47 1354.98 1532.07 Q1354.4 1532.74 1351.3 1535.95 Q1348.2 1539.15 1342.55 1544.91 Z" fill="#000000" fill-rule="evenodd" fill-opacity="1" /><path clip-path="url(#clip940)" d="M2185.58 1514.29 L2214.82 1514.29 L2214.82 1518.22 L2202.55 1518.22 L2202.55 1548.85 L2197.85 1548.85 L2197.85 1518.22 L2185.58 1518.22 L2185.58 1514.29 Z" fill="#000000" fill-rule="evenodd" fill-opacity="1" /><path clip-path="url(#clip940)" d="M2221.14 1525.91 Q2217.71 1525.91 2215.72 1528.59 Q2213.73 1531.26 2213.73 1535.91 Q2213.73 1540.56 2215.7 1543.25 Q2217.69 1545.91 2221.14 1545.91 Q2224.54 1545.91 2226.53 1543.22 Q2228.52 1540.54 2228.52 1535.91 Q2228.52 1531.3 2226.53 1528.62 Q2224.54 1525.91 2221.14 1525.91 M2221.14 1522.3 Q2226.69 1522.3 2229.86 1525.91 Q2233.04 1529.52 2233.04 1535.91 Q2233.04 1542.27 2229.86 1545.91 Q2226.69 1549.52 2221.14 1549.52 Q2215.56 1549.52 2212.39 1545.91 Q2209.24 1542.27 2209.24 1535.91 Q2209.24 1529.52 2212.39 1525.91 Q2215.56 1522.3 2221.14 1522.3 Z" fill="#000000" fill-rule="evenodd" fill-opacity="1" /><path clip-path="url(#clip940)" d="M2244.31 1515.56 L2244.31 1522.92 L2253.08 1522.92 L2253.08 1526.23 L2244.31 1526.23 L2244.31 1540.31 Q2244.31 1543.48 2245.17 1544.38 Q2246.04 1545.28 2248.71 1545.28 L2253.08 1545.28 L2253.08 1548.85 L2248.71 1548.85 Q2243.78 1548.85 2241.9 1547.02 Q2240.03 1545.17 2240.03 1540.31 L2240.03 1526.23 L2236.9 1526.23 L2236.9 1522.92 L2240.03 1522.92 L2240.03 1515.56 L2244.31 1515.56 Z" fill="#000000" fill-rule="evenodd" fill-opacity="1" /><path clip-path="url(#clip940)" d="M2270.47 1535.82 Q2265.3 1535.82 2263.31 1537 Q2261.32 1538.18 2261.32 1541.02 Q2261.32 1543.29 2262.8 1544.63 Q2264.31 1545.95 2266.88 1545.95 Q2270.42 1545.95 2272.55 1543.45 Q2274.7 1540.93 2274.7 1536.76 L2274.7 1535.82 L2270.47 1535.82 M2278.96 1534.06 L2278.96 1548.85 L2274.7 1548.85 L2274.7 1544.91 Q2273.24 1547.27 2271.07 1548.41 Q2268.89 1549.52 2265.74 1549.52 Q2261.76 1549.52 2259.4 1547.3 Q2257.06 1545.05 2257.06 1541.3 Q2257.06 1536.93 2259.98 1534.7 Q2262.92 1532.48 2268.73 1532.48 L2274.7 1532.48 L2274.7 1532.07 Q2274.7 1529.13 2272.76 1527.53 Q2270.84 1525.91 2267.34 1525.91 Q2265.12 1525.91 2263.01 1526.44 Q2260.91 1526.97 2258.96 1528.04 L2258.96 1524.1 Q2261.3 1523.2 2263.5 1522.76 Q2265.7 1522.3 2267.78 1522.3 Q2273.41 1522.3 2276.18 1525.21 Q2278.96 1528.13 2278.96 1534.06 Z" fill="#000000" fill-rule="evenodd" fill-opacity="1" /><path clip-path="url(#clip940)" d="M2287.73 1512.83 L2291.99 1512.83 L2291.99 1548.85 L2287.73 1548.85 L2287.73 1512.83 Z" fill="#000000" fill-rule="evenodd" fill-opacity="1" /><path clip-path="url(#clip940)" d="M2320.6 1556.72 L2320.6 1560.03 L2295.97 1560.03 L2295.97 1556.72 L2320.6 1556.72 Z" fill="#000000" fill-rule="evenodd" fill-opacity="1" /><path clip-path="url(#clip940)" d="M2350.67 1516.95 L2350.67 1521.88 Q2348.31 1519.68 2345.63 1518.59 Q2342.97 1517.51 2339.96 1517.51 Q2334.03 1517.51 2330.88 1521.14 Q2327.73 1524.75 2327.73 1531.6 Q2327.73 1538.43 2330.88 1542.07 Q2334.03 1545.68 2339.96 1545.68 Q2342.97 1545.68 2345.63 1544.59 Q2348.31 1543.5 2350.67 1541.3 L2350.67 1546.19 Q2348.22 1547.85 2345.47 1548.69 Q2342.73 1549.52 2339.68 1549.52 Q2331.83 1549.52 2327.32 1544.73 Q2322.8 1539.91 2322.8 1531.6 Q2322.8 1523.27 2327.32 1518.48 Q2331.83 1513.66 2339.68 1513.66 Q2342.78 1513.66 2345.51 1514.5 Q2348.27 1515.31 2350.67 1516.95 Z" fill="#000000" fill-rule="evenodd" fill-opacity="1" /><path clip-path="url(#clip940)" d="M2358.8 1542.97 L2363.68 1542.97 L2363.68 1548.85 L2358.8 1548.85 L2358.8 1542.97 M2358.8 1524.33 L2363.68 1524.33 L2363.68 1530.21 L2358.8 1530.21 L2358.8 1524.33 Z" fill="#000000" fill-rule="evenodd" fill-opacity="1" /><path clip-path="url(#clip940)" d="M2388.45 1530.21 Q2391.81 1530.93 2393.68 1533.2 Q2395.58 1535.47 2395.58 1538.8 Q2395.58 1543.92 2392.06 1546.72 Q2388.54 1549.52 2382.06 1549.52 Q2379.89 1549.52 2377.57 1549.08 Q2375.28 1548.66 2372.83 1547.81 L2372.83 1543.29 Q2374.77 1544.43 2377.09 1545.01 Q2379.4 1545.58 2381.92 1545.58 Q2386.32 1545.58 2388.61 1543.85 Q2390.93 1542.11 2390.93 1538.8 Q2390.93 1535.75 2388.78 1534.03 Q2386.65 1532.3 2382.83 1532.3 L2378.8 1532.3 L2378.8 1528.45 L2383.01 1528.45 Q2386.46 1528.45 2388.29 1527.09 Q2390.12 1525.7 2390.12 1523.11 Q2390.12 1520.45 2388.22 1519.03 Q2386.34 1517.6 2382.83 1517.6 Q2380.91 1517.6 2378.71 1518.01 Q2376.51 1518.43 2373.87 1519.31 L2373.87 1515.14 Q2376.53 1514.4 2378.84 1514.03 Q2381.18 1513.66 2383.24 1513.66 Q2388.57 1513.66 2391.67 1516.09 Q2394.77 1518.5 2394.77 1522.62 Q2394.77 1525.49 2393.13 1527.48 Q2391.48 1529.45 2388.45 1530.21 Z" fill="#000000" fill-rule="evenodd" fill-opacity="1" /><polyline clip-path="url(#clip942)" style="stroke:#000000; stroke-linecap:butt; stroke-linejoin:round; stroke-width:2; stroke-opacity:0.1; fill:none" points="
  155.927,1371.27 2352.76,1371.27 
  "/>
<polyline clip-path="url(#clip942)" style="stroke:#000000; stroke-linecap:butt; stroke-linejoin:round; stroke-width:2; stroke-opacity:0.1; fill:none" points="
  155.927,1049.77 2352.76,1049.77 
  "/>
<polyline clip-path="url(#clip942)" style="stroke:#000000; stroke-linecap:butt; stroke-linejoin:round; stroke-width:2; stroke-opacity:0.1; fill:none" points="
  155.927,728.263 2352.76,728.263 
  "/>
<polyline clip-path="url(#clip942)" style="stroke:#000000; stroke-linecap:butt; stroke-linejoin:round; stroke-width:2; stroke-opacity:0.1; fill:none" points="
  155.927,406.759 2352.76,406.759 
  "/>
<polyline clip-path="url(#clip940)" style="stroke:#000000; stroke-linecap:butt; stroke-linejoin:round; stroke-width:4; stroke-opacity:1; fill:none" points="
  155.927,1486.45 155.927,123.472 
  "/>
<polyline clip-path="url(#clip940)" style="stroke:#000000; stroke-linecap:butt; stroke-linejoin:round; stroke-width:4; stroke-opacity:1; fill:none" points="
  155.927,1371.27 174.825,1371.27 
  "/>
<polyline clip-path="url(#clip940)" style="stroke:#000000; stroke-linecap:butt; stroke-linejoin:round; stroke-width:4; stroke-opacity:1; fill:none" points="
  155.927,1049.77 174.825,1049.77 
  "/>
<polyline clip-path="url(#clip940)" style="stroke:#000000; stroke-linecap:butt; stroke-linejoin:round; stroke-width:4; stroke-opacity:1; fill:none" points="
  155.927,728.263 174.825,728.263 
  "/>
<polyline clip-path="url(#clip940)" style="stroke:#000000; stroke-linecap:butt; stroke-linejoin:round; stroke-width:4; stroke-opacity:1; fill:none" points="
  155.927,406.759 174.825,406.759 
  "/>
<path clip-path="url(#clip940)" d="M53.793 1353.99 L72.1494 1353.99 L72.1494 1357.93 L58.0754 1357.93 L58.0754 1366.4 Q59.0939 1366.05 60.1124 1365.89 Q61.131 1365.7 62.1495 1365.7 Q67.9365 1365.7 71.3161 1368.87 Q74.6957 1372.05 74.6957 1377.46 Q74.6957 1383.04 71.2235 1386.14 Q67.7513 1389.22 61.4319 1389.22 Q59.256 1389.22 56.9875 1388.85 Q54.7421 1388.48 52.3347 1387.74 L52.3347 1383.04 Q54.418 1384.18 56.6402 1384.73 Q58.8625 1385.29 61.3393 1385.29 Q65.3439 1385.29 67.6819 1383.18 Q70.0198 1381.07 70.0198 1377.46 Q70.0198 1373.85 67.6819 1371.74 Q65.3439 1369.64 61.3393 1369.64 Q59.4643 1369.64 57.5893 1370.06 Q55.7375 1370.47 53.793 1371.35 L53.793 1353.99 Z" fill="#000000" fill-rule="evenodd" fill-opacity="1" /><path clip-path="url(#clip940)" d="M83.9086 1382.67 L88.7928 1382.67 L88.7928 1388.55 L83.9086 1388.55 L83.9086 1382.67 Z" fill="#000000" fill-rule="evenodd" fill-opacity="1" /><path clip-path="url(#clip940)" d="M99.0243 1353.99 L117.381 1353.99 L117.381 1357.93 L103.307 1357.93 L103.307 1366.4 Q104.325 1366.05 105.344 1365.89 Q106.362 1365.7 107.381 1365.7 Q113.168 1365.7 116.547 1368.87 Q119.927 1372.05 119.927 1377.46 Q119.927 1383.04 116.455 1386.14 Q112.983 1389.22 106.663 1389.22 Q104.487 1389.22 102.219 1388.85 Q99.9733 1388.48 97.566 1387.74 L97.566 1383.04 Q99.6493 1384.18 101.871 1384.73 Q104.094 1385.29 106.571 1385.29 Q110.575 1385.29 112.913 1383.18 Q115.251 1381.07 115.251 1377.46 Q115.251 1373.85 112.913 1371.74 Q110.575 1369.64 106.571 1369.64 Q104.696 1369.64 102.821 1370.06 Q100.969 1370.47 99.0243 1371.35 L99.0243 1353.99 Z" fill="#000000" fill-rule="evenodd" fill-opacity="1" /><path clip-path="url(#clip940)" d="M63.33 1047.9 Q60.1819 1047.9 58.33 1050.06 Q56.5014 1052.21 56.5014 1055.96 Q56.5014 1059.69 58.33 1061.86 Q60.1819 1064.01 63.33 1064.01 Q66.4782 1064.01 68.3068 1061.86 Q70.1587 1059.69 70.1587 1055.96 Q70.1587 1052.21 68.3068 1050.06 Q66.4782 1047.9 63.33 1047.9 M72.6124 1033.25 L72.6124 1037.51 Q70.8531 1036.68 69.0476 1036.24 Q67.2652 1035.8 65.5059 1035.8 Q60.8763 1035.8 58.4226 1038.92 Q55.9921 1042.05 55.6449 1048.37 Q57.0106 1046.35 59.0708 1045.29 Q61.131 1044.2 63.6078 1044.2 Q68.8161 1044.2 71.8253 1047.37 Q74.8577 1050.52 74.8577 1055.96 Q74.8577 1061.28 71.7096 1064.5 Q68.5615 1067.72 63.33 1067.72 Q57.3347 1067.72 54.1634 1063.13 Q50.9921 1058.53 50.9921 1049.8 Q50.9921 1041.61 54.881 1036.75 Q58.7699 1031.86 65.3208 1031.86 Q67.08 1031.86 68.8624 1032.21 Q70.6679 1032.56 72.6124 1033.25 Z" fill="#000000" fill-rule="evenodd" fill-opacity="1" /><path clip-path="url(#clip940)" d="M82.9133 1061.17 L87.7975 1061.17 L87.7975 1067.05 L82.9133 1067.05 L82.9133 1061.17 Z" fill="#000000" fill-rule="evenodd" fill-opacity="1" /><path clip-path="url(#clip940)" d="M107.983 1035.57 Q104.371 1035.57 102.543 1039.13 Q100.737 1042.67 100.737 1049.8 Q100.737 1056.91 102.543 1060.47 Q104.371 1064.01 107.983 1064.01 Q111.617 1064.01 113.422 1060.47 Q115.251 1056.91 115.251 1049.8 Q115.251 1042.67 113.422 1039.13 Q111.617 1035.57 107.983 1035.57 M107.983 1031.86 Q113.793 1031.86 116.848 1036.47 Q119.927 1041.05 119.927 1049.8 Q119.927 1058.53 116.848 1063.13 Q113.793 1067.72 107.983 1067.72 Q102.172 1067.72 99.0937 1063.13 Q96.0382 1058.53 96.0382 1049.8 Q96.0382 1041.05 99.0937 1036.47 Q102.172 1031.86 107.983 1031.86 Z" fill="#000000" fill-rule="evenodd" fill-opacity="1" /><path clip-path="url(#clip940)" d="M64.3254 726.4 Q61.1773 726.4 59.3254 728.552 Q57.4967 730.705 57.4967 734.455 Q57.4967 738.182 59.3254 740.358 Q61.1773 742.511 64.3254 742.511 Q67.4735 742.511 69.3022 740.358 Q71.1541 738.182 71.1541 734.455 Q71.1541 730.705 69.3022 728.552 Q67.4735 726.4 64.3254 726.4 M73.6077 711.747 L73.6077 716.006 Q71.8485 715.173 70.0429 714.733 Q68.2606 714.293 66.5013 714.293 Q61.8717 714.293 59.418 717.418 Q56.9875 720.543 56.6402 726.863 Q58.006 724.849 60.0662 723.784 Q62.1263 722.696 64.6032 722.696 Q69.8115 722.696 72.8207 725.867 Q75.8531 729.015 75.8531 734.455 Q75.8531 739.779 72.705 742.997 Q69.5568 746.214 64.3254 746.214 Q58.33 746.214 55.1588 741.631 Q51.9875 737.025 51.9875 728.298 Q51.9875 720.103 55.8764 715.242 Q59.7652 710.358 66.3161 710.358 Q68.0754 710.358 69.8578 710.705 Q71.6633 711.052 73.6077 711.747 Z" fill="#000000" fill-rule="evenodd" fill-opacity="1" /><path clip-path="url(#clip940)" d="M83.9086 739.663 L88.7928 739.663 L88.7928 745.543 L83.9086 745.543 L83.9086 739.663 Z" fill="#000000" fill-rule="evenodd" fill-opacity="1" /><path clip-path="url(#clip940)" d="M99.0243 710.983 L117.381 710.983 L117.381 714.918 L103.307 714.918 L103.307 723.39 Q104.325 723.043 105.344 722.881 Q106.362 722.696 107.381 722.696 Q113.168 722.696 116.547 725.867 Q119.927 729.038 119.927 734.455 Q119.927 740.034 116.455 743.136 Q112.983 746.214 106.663 746.214 Q104.487 746.214 102.219 745.844 Q99.9733 745.474 97.566 744.733 L97.566 740.034 Q99.6493 741.168 101.871 741.724 Q104.094 742.279 106.571 742.279 Q110.575 742.279 112.913 740.173 Q115.251 738.066 115.251 734.455 Q115.251 730.844 112.913 728.738 Q110.575 726.631 106.571 726.631 Q104.696 726.631 102.821 727.048 Q100.969 727.464 99.0243 728.344 L99.0243 710.983 Z" fill="#000000" fill-rule="evenodd" fill-opacity="1" /><path clip-path="url(#clip940)" d="M51.5708 389.479 L73.7929 389.479 L73.7929 391.47 L61.2467 424.039 L56.3625 424.039 L68.168 393.415 L51.5708 393.415 L51.5708 389.479 Z" fill="#000000" fill-rule="evenodd" fill-opacity="1" /><path clip-path="url(#clip940)" d="M82.9133 418.16 L87.7975 418.16 L87.7975 424.039 L82.9133 424.039 L82.9133 418.16 Z" fill="#000000" fill-rule="evenodd" fill-opacity="1" /><path clip-path="url(#clip940)" d="M107.983 392.558 Q104.371 392.558 102.543 396.123 Q100.737 399.665 100.737 406.794 Q100.737 413.901 102.543 417.465 Q104.371 421.007 107.983 421.007 Q111.617 421.007 113.422 417.465 Q115.251 413.901 115.251 406.794 Q115.251 399.665 113.422 396.123 Q111.617 392.558 107.983 392.558 M107.983 388.854 Q113.793 388.854 116.848 393.461 Q119.927 398.044 119.927 406.794 Q119.927 415.521 116.848 420.127 Q113.793 424.711 107.983 424.711 Q102.172 424.711 99.0937 420.127 Q96.0382 415.521 96.0382 406.794 Q96.0382 398.044 99.0937 393.461 Q102.172 388.854 107.983 388.854 Z" fill="#000000" fill-rule="evenodd" fill-opacity="1" /><path clip-path="url(#clip940)" d="M519.75 12.096 L570.913 12.096 L570.913 18.9825 L549.444 18.9825 L549.444 72.576 L541.22 72.576 L541.22 18.9825 L519.75 18.9825 L519.75 12.096 Z" fill="#000000" fill-rule="evenodd" fill-opacity="1" /><path clip-path="url(#clip940)" d="M567.106 46.5287 L588.94 46.5287 L588.94 53.1722 L567.106 53.1722 L567.106 46.5287 Z" fill="#000000" fill-rule="evenodd" fill-opacity="1" /><path clip-path="url(#clip940)" d="M629.733 28.5427 L629.733 35.5912 Q626.573 33.9709 623.17 33.1607 Q619.767 32.3505 616.121 32.3505 Q610.572 32.3505 607.777 34.0519 Q605.022 35.7533 605.022 39.156 Q605.022 41.7486 607.007 43.2475 Q608.992 44.7058 614.987 46.0426 L617.539 46.6097 Q625.479 48.3111 628.801 51.4303 Q632.163 54.509 632.163 60.0587 Q632.163 66.3781 627.14 70.0644 Q622.157 73.7508 613.407 73.7508 Q609.762 73.7508 605.792 73.0216 Q601.862 72.3329 597.487 70.9151 L597.487 63.2184 Q601.619 65.3654 605.63 66.4591 Q609.64 67.5124 613.569 67.5124 Q618.836 67.5124 621.671 65.73 Q624.507 63.9071 624.507 60.6258 Q624.507 57.5877 622.441 55.9673 Q620.415 54.3469 613.488 52.8481 L610.896 52.2405 Q603.969 50.7821 600.89 47.7845 Q597.811 44.7463 597.811 39.4801 Q597.811 33.0797 602.348 29.5959 Q606.885 26.1121 615.23 26.1121 Q619.362 26.1121 623.008 26.7198 Q626.654 27.3274 629.733 28.5427 Z" fill="#000000" fill-rule="evenodd" fill-opacity="1" /><path clip-path="url(#clip940)" d="M651.405 14.324 L651.405 27.2059 L666.758 27.2059 L666.758 32.9987 L651.405 32.9987 L651.405 57.6282 Q651.405 63.1779 652.904 64.7578 Q654.443 66.3376 659.102 66.3376 L666.758 66.3376 L666.758 72.576 L659.102 72.576 Q650.473 72.576 647.192 69.3758 Q643.911 66.1351 643.911 57.6282 L643.911 32.9987 L638.442 32.9987 L638.442 27.2059 L643.911 27.2059 L643.911 14.324 L651.405 14.324 Z" fill="#000000" fill-rule="evenodd" fill-opacity="1" /><path clip-path="url(#clip940)" d="M697.18 49.7694 Q688.147 49.7694 684.663 51.8354 Q681.179 53.9013 681.179 58.8839 Q681.179 62.8538 683.772 65.2034 Q686.405 67.5124 690.901 67.5124 Q697.099 67.5124 700.826 63.1374 Q704.593 58.7219 704.593 51.4303 L704.593 49.7694 L697.18 49.7694 M712.047 46.6907 L712.047 72.576 L704.593 72.576 L704.593 65.6895 Q702.041 69.8214 698.233 71.8063 Q694.425 73.7508 688.916 73.7508 Q681.949 73.7508 677.817 69.8619 Q673.725 65.9325 673.725 59.3701 Q673.725 51.7138 678.829 47.825 Q683.974 43.9361 694.142 43.9361 L704.593 43.9361 L704.593 43.2069 Q704.593 38.0623 701.19 35.2672 Q697.828 32.4315 691.711 32.4315 Q687.822 32.4315 684.136 33.3632 Q680.45 34.295 677.047 36.1584 L677.047 29.2718 Q681.138 27.692 684.987 26.9223 Q688.835 26.1121 692.481 26.1121 Q702.325 26.1121 707.186 31.2163 Q712.047 36.3204 712.047 46.6907 Z" fill="#000000" fill-rule="evenodd" fill-opacity="1" /><path clip-path="url(#clip940)" d="M734.772 14.324 L734.772 27.2059 L750.125 27.2059 L750.125 32.9987 L734.772 32.9987 L734.772 57.6282 Q734.772 63.1779 736.271 64.7578 Q737.811 66.3376 742.469 66.3376 L750.125 66.3376 L750.125 72.576 L742.469 72.576 Q733.841 72.576 730.56 69.3758 Q727.278 66.1351 727.278 57.6282 L727.278 32.9987 L721.81 32.9987 L721.81 27.2059 L727.278 27.2059 L727.278 14.324 L734.772 14.324 Z" fill="#000000" fill-rule="evenodd" fill-opacity="1" /><path clip-path="url(#clip940)" d="M759.929 27.2059 L767.382 27.2059 L767.382 72.576 L759.929 72.576 L759.929 27.2059 M759.929 9.54393 L767.382 9.54393 L767.382 18.9825 L759.929 18.9825 L759.929 9.54393 Z" fill="#000000" fill-rule="evenodd" fill-opacity="1" /><path clip-path="url(#clip940)" d="M811.902 28.5427 L811.902 35.5912 Q808.742 33.9709 805.339 33.1607 Q801.936 32.3505 798.291 32.3505 Q792.741 32.3505 789.946 34.0519 Q787.191 35.7533 787.191 39.156 Q787.191 41.7486 789.176 43.2475 Q791.161 44.7058 797.156 46.0426 L799.708 46.6097 Q807.648 48.3111 810.97 51.4303 Q814.332 54.509 814.332 60.0587 Q814.332 66.3781 809.309 70.0644 Q804.326 73.7508 795.577 73.7508 Q791.931 73.7508 787.961 73.0216 Q784.031 72.3329 779.656 70.9151 L779.656 63.2184 Q783.788 65.3654 787.799 66.4591 Q791.809 67.5124 795.739 67.5124 Q801.005 67.5124 803.84 65.73 Q806.676 63.9071 806.676 60.6258 Q806.676 57.5877 804.61 55.9673 Q802.585 54.3469 795.658 52.8481 L793.065 52.2405 Q786.138 50.7821 783.059 47.7845 Q779.981 44.7463 779.981 39.4801 Q779.981 33.0797 784.518 29.5959 Q789.055 26.1121 797.399 26.1121 Q801.531 26.1121 805.177 26.7198 Q808.823 27.3274 811.902 28.5427 Z" fill="#000000" fill-rule="evenodd" fill-opacity="1" /><path clip-path="url(#clip940)" d="M833.574 14.324 L833.574 27.2059 L848.927 27.2059 L848.927 32.9987 L833.574 32.9987 L833.574 57.6282 Q833.574 63.1779 835.073 64.7578 Q836.612 66.3376 841.271 66.3376 L848.927 66.3376 L848.927 72.576 L841.271 72.576 Q832.642 72.576 829.361 69.3758 Q826.08 66.1351 826.08 57.6282 L826.08 32.9987 L820.611 32.9987 L820.611 27.2059 L826.08 27.2059 L826.08 14.324 L833.574 14.324 Z" fill="#000000" fill-rule="evenodd" fill-opacity="1" /><path clip-path="url(#clip940)" d="M858.73 27.2059 L866.184 27.2059 L866.184 72.576 L858.73 72.576 L858.73 27.2059 M858.73 9.54393 L866.184 9.54393 L866.184 18.9825 L858.73 18.9825 L858.73 9.54393 Z" fill="#000000" fill-rule="evenodd" fill-opacity="1" /><path clip-path="url(#clip940)" d="M914.43 28.9478 L914.43 35.9153 Q911.27 34.1734 908.07 33.3227 Q904.91 32.4315 901.67 32.4315 Q894.419 32.4315 890.408 37.0496 Q886.398 41.6271 886.398 49.9314 Q886.398 58.2358 890.408 62.8538 Q894.419 67.4314 901.67 67.4314 Q904.91 67.4314 908.07 66.5807 Q911.27 65.6895 914.43 63.9476 L914.43 70.8341 Q911.311 72.2924 907.949 73.0216 Q904.627 73.7508 900.86 73.7508 Q890.611 73.7508 884.575 67.3098 Q878.539 60.8689 878.539 49.9314 Q878.539 38.832 884.615 32.472 Q890.732 26.1121 901.346 26.1121 Q904.789 26.1121 908.07 26.8413 Q911.351 27.5299 914.43 28.9478 Z" fill="#000000" fill-rule="evenodd" fill-opacity="1" /><path clip-path="url(#clip940)" d="M956.316 28.5427 L956.316 35.5912 Q953.157 33.9709 949.754 33.1607 Q946.351 32.3505 942.705 32.3505 Q937.156 32.3505 934.36 34.0519 Q931.606 35.7533 931.606 39.156 Q931.606 41.7486 933.591 43.2475 Q935.576 44.7058 941.571 46.0426 L944.123 46.6097 Q952.063 48.3111 955.385 51.4303 Q958.747 54.509 958.747 60.0587 Q958.747 66.3781 953.724 70.0644 Q948.741 73.7508 939.991 73.7508 Q936.345 73.7508 932.376 73.0216 Q928.446 72.3329 924.071 70.9151 L924.071 63.2184 Q928.203 65.3654 932.214 66.4591 Q936.224 67.5124 940.153 67.5124 Q945.419 67.5124 948.255 65.73 Q951.091 63.9071 951.091 60.6258 Q951.091 57.5877 949.025 55.9673 Q946.999 54.3469 940.072 52.8481 L937.48 52.2405 Q930.553 50.7821 927.474 47.7845 Q924.395 44.7463 924.395 39.4801 Q924.395 33.0797 928.932 29.5959 Q933.469 26.1121 941.814 26.1121 Q945.946 26.1121 949.592 26.7198 Q953.238 27.3274 956.316 28.5427 Z" fill="#000000" fill-rule="evenodd" fill-opacity="1" /><path clip-path="url(#clip940)" d="M1014.57 32.4315 Q1008.57 32.4315 1005.09 37.1306 Q1001.61 41.7891 1001.61 49.9314 Q1001.61 58.0738 1005.05 62.7728 Q1008.53 67.4314 1014.57 67.4314 Q1020.52 67.4314 1024.01 62.7323 Q1027.49 58.0333 1027.49 49.9314 Q1027.49 41.8701 1024.01 37.1711 Q1020.52 32.4315 1014.57 32.4315 M1014.57 26.1121 Q1024.29 26.1121 1029.84 32.4315 Q1035.39 38.7509 1035.39 49.9314 Q1035.39 61.0714 1029.84 67.4314 Q1024.29 73.7508 1014.57 73.7508 Q1004.81 73.7508 999.256 67.4314 Q993.747 61.0714 993.747 49.9314 Q993.747 38.7509 999.256 32.4315 Q1004.81 26.1121 1014.57 26.1121 Z" fill="#000000" fill-rule="evenodd" fill-opacity="1" /><path clip-path="url(#clip940)" d="M1070.71 9.54393 L1070.71 15.7418 L1063.58 15.7418 Q1059.57 15.7418 1057.99 17.3622 Q1056.45 18.9825 1056.45 23.1955 L1056.45 27.2059 L1068.73 27.2059 L1068.73 32.9987 L1056.45 32.9987 L1056.45 72.576 L1048.96 72.576 L1048.96 32.9987 L1041.83 32.9987 L1041.83 27.2059 L1048.96 27.2059 L1048.96 24.0462 Q1048.96 16.471 1052.48 13.0277 Q1056.01 9.54393 1063.67 9.54393 L1070.71 9.54393 Z" fill="#000000" fill-rule="evenodd" fill-opacity="1" /><path clip-path="url(#clip940)" d="M1135.97 28.9478 L1135.97 35.9153 Q1132.81 34.1734 1129.61 33.3227 Q1126.45 32.4315 1123.21 32.4315 Q1115.96 32.4315 1111.95 37.0496 Q1107.94 41.6271 1107.94 49.9314 Q1107.94 58.2358 1111.95 62.8538 Q1115.96 67.4314 1123.21 67.4314 Q1126.45 67.4314 1129.61 66.5807 Q1132.81 65.6895 1135.97 63.9476 L1135.97 70.8341 Q1132.85 72.2924 1129.49 73.0216 Q1126.17 73.7508 1122.4 73.7508 Q1112.15 73.7508 1106.12 67.3098 Q1100.08 60.8689 1100.08 49.9314 Q1100.08 38.832 1106.16 32.472 Q1112.28 26.1121 1122.89 26.1121 Q1126.33 26.1121 1129.61 26.8413 Q1132.9 27.5299 1135.97 28.9478 Z" fill="#000000" fill-rule="evenodd" fill-opacity="1" /><path clip-path="url(#clip940)" d="M1166.52 32.4315 Q1160.52 32.4315 1157.04 37.1306 Q1153.55 41.7891 1153.55 49.9314 Q1153.55 58.0738 1157 62.7728 Q1160.48 67.4314 1166.52 67.4314 Q1172.47 67.4314 1175.96 62.7323 Q1179.44 58.0333 1179.44 49.9314 Q1179.44 41.8701 1175.96 37.1711 Q1172.47 32.4315 1166.52 32.4315 M1166.52 26.1121 Q1176.24 26.1121 1181.79 32.4315 Q1187.34 38.7509 1187.34 49.9314 Q1187.34 61.0714 1181.79 67.4314 Q1176.24 73.7508 1166.52 73.7508 Q1156.76 73.7508 1151.21 67.4314 Q1145.7 61.0714 1145.7 49.9314 Q1145.7 38.7509 1151.21 32.4315 Q1156.76 26.1121 1166.52 26.1121 Z" fill="#000000" fill-rule="evenodd" fill-opacity="1" /><path clip-path="url(#clip940)" d="M1238.5 48.0275 L1238.5 51.6733 L1204.23 51.6733 Q1204.72 59.3701 1208.85 63.421 Q1213.02 67.4314 1220.44 67.4314 Q1224.73 67.4314 1228.74 66.3781 Q1232.79 65.3249 1236.76 63.2184 L1236.76 70.267 Q1232.75 71.9684 1228.54 72.8596 Q1224.32 73.7508 1219.99 73.7508 Q1209.13 73.7508 1202.77 67.4314 Q1196.45 61.1119 1196.45 50.3365 Q1196.45 39.1965 1202.45 32.6746 Q1208.49 26.1121 1218.69 26.1121 Q1227.85 26.1121 1233.16 32.0264 Q1238.5 37.9003 1238.5 48.0275 M1231.05 45.84 Q1230.97 39.7232 1227.61 36.0774 Q1224.28 32.4315 1218.77 32.4315 Q1212.54 32.4315 1208.77 35.9558 Q1205.04 39.4801 1204.47 45.8805 L1231.05 45.84 Z" fill="#000000" fill-rule="evenodd" fill-opacity="1" /><path clip-path="url(#clip940)" d="M1273.7 9.54393 L1273.7 15.7418 L1266.58 15.7418 Q1262.56 15.7418 1260.98 17.3622 Q1259.45 18.9825 1259.45 23.1955 L1259.45 27.2059 L1271.72 27.2059 L1271.72 32.9987 L1259.45 32.9987 L1259.45 72.576 L1251.95 72.576 L1251.95 32.9987 L1244.82 32.9987 L1244.82 27.2059 L1251.95 27.2059 L1251.95 24.0462 Q1251.95 16.471 1255.48 13.0277 Q1259 9.54393 1266.66 9.54393 L1273.7 9.54393 Z" fill="#000000" fill-rule="evenodd" fill-opacity="1" /><path clip-path="url(#clip940)" d="M1302.91 9.54393 L1302.91 15.7418 L1295.78 15.7418 Q1291.77 15.7418 1290.19 17.3622 Q1288.65 18.9825 1288.65 23.1955 L1288.65 27.2059 L1300.93 27.2059 L1300.93 32.9987 L1288.65 32.9987 L1288.65 72.576 L1281.16 72.576 L1281.16 32.9987 L1274.03 32.9987 L1274.03 27.2059 L1281.16 27.2059 L1281.16 24.0462 Q1281.16 16.471 1284.68 13.0277 Q1288.21 9.54393 1295.86 9.54393 L1302.91 9.54393 Z" fill="#000000" fill-rule="evenodd" fill-opacity="1" /><path clip-path="url(#clip940)" d="M1309.15 27.2059 L1316.6 27.2059 L1316.6 72.576 L1309.15 72.576 L1309.15 27.2059 M1309.15 9.54393 L1316.6 9.54393 L1316.6 18.9825 L1309.15 18.9825 L1309.15 9.54393 Z" fill="#000000" fill-rule="evenodd" fill-opacity="1" /><path clip-path="url(#clip940)" d="M1364.85 28.9478 L1364.85 35.9153 Q1361.69 34.1734 1358.49 33.3227 Q1355.33 32.4315 1352.09 32.4315 Q1344.84 32.4315 1340.83 37.0496 Q1336.82 41.6271 1336.82 49.9314 Q1336.82 58.2358 1340.83 62.8538 Q1344.84 67.4314 1352.09 67.4314 Q1355.33 67.4314 1358.49 66.5807 Q1361.69 65.6895 1364.85 63.9476 L1364.85 70.8341 Q1361.73 72.2924 1358.37 73.0216 Q1355.05 73.7508 1351.28 73.7508 Q1341.03 73.7508 1334.99 67.3098 Q1328.96 60.8689 1328.96 49.9314 Q1328.96 38.832 1335.04 32.472 Q1341.15 26.1121 1351.77 26.1121 Q1355.21 26.1121 1358.49 26.8413 Q1361.77 27.5299 1364.85 28.9478 Z" fill="#000000" fill-rule="evenodd" fill-opacity="1" /><path clip-path="url(#clip940)" d="M1377.81 27.2059 L1385.27 27.2059 L1385.27 72.576 L1377.81 72.576 L1377.81 27.2059 M1377.81 9.54393 L1385.27 9.54393 L1385.27 18.9825 L1377.81 18.9825 L1377.81 9.54393 Z" fill="#000000" fill-rule="evenodd" fill-opacity="1" /><path clip-path="url(#clip940)" d="M1439.67 48.0275 L1439.67 51.6733 L1405.4 51.6733 Q1405.89 59.3701 1410.02 63.421 Q1414.19 67.4314 1421.6 67.4314 Q1425.9 67.4314 1429.91 66.3781 Q1433.96 65.3249 1437.93 63.2184 L1437.93 70.267 Q1433.92 71.9684 1429.71 72.8596 Q1425.49 73.7508 1421.16 73.7508 Q1410.3 73.7508 1403.94 67.4314 Q1397.62 61.1119 1397.62 50.3365 Q1397.62 39.1965 1403.62 32.6746 Q1409.65 26.1121 1419.86 26.1121 Q1429.02 26.1121 1434.32 32.0264 Q1439.67 37.9003 1439.67 48.0275 M1432.22 45.84 Q1432.14 39.7232 1428.77 36.0774 Q1425.45 32.4315 1419.94 32.4315 Q1413.7 32.4315 1409.94 35.9558 Q1406.21 39.4801 1405.64 45.8805 L1432.22 45.84 Z" fill="#000000" fill-rule="evenodd" fill-opacity="1" /><path clip-path="url(#clip940)" d="M1489.62 45.1919 L1489.62 72.576 L1482.16 72.576 L1482.16 45.4349 Q1482.16 38.994 1479.65 35.7938 Q1477.14 32.5936 1472.12 32.5936 Q1466.08 32.5936 1462.6 36.4419 Q1459.11 40.2903 1459.11 46.9338 L1459.11 72.576 L1451.62 72.576 L1451.62 27.2059 L1459.11 27.2059 L1459.11 34.2544 Q1461.79 30.163 1465.39 28.1376 Q1469.04 26.1121 1473.78 26.1121 Q1481.6 26.1121 1485.61 30.9732 Q1489.62 35.7938 1489.62 45.1919 Z" fill="#000000" fill-rule="evenodd" fill-opacity="1" /><path clip-path="url(#clip940)" d="M1511.86 14.324 L1511.86 27.2059 L1527.21 27.2059 L1527.21 32.9987 L1511.86 32.9987 L1511.86 57.6282 Q1511.86 63.1779 1513.36 64.7578 Q1514.9 66.3376 1519.55 66.3376 L1527.21 66.3376 L1527.21 72.576 L1519.55 72.576 Q1510.93 72.576 1507.64 69.3758 Q1504.36 66.1351 1504.36 57.6282 L1504.36 32.9987 L1498.89 32.9987 L1498.89 27.2059 L1504.36 27.2059 L1504.36 14.324 L1511.86 14.324 Z" fill="#000000" fill-rule="evenodd" fill-opacity="1" /><path clip-path="url(#clip940)" d="M1602.19 48.0275 L1602.19 51.6733 L1567.92 51.6733 Q1568.41 59.3701 1572.54 63.421 Q1576.71 67.4314 1584.13 67.4314 Q1588.42 67.4314 1592.43 66.3781 Q1596.48 65.3249 1600.45 63.2184 L1600.45 70.267 Q1596.44 71.9684 1592.23 72.8596 Q1588.01 73.7508 1583.68 73.7508 Q1572.82 73.7508 1566.46 67.4314 Q1560.14 61.1119 1560.14 50.3365 Q1560.14 39.1965 1566.14 32.6746 Q1572.18 26.1121 1582.38 26.1121 Q1591.54 26.1121 1596.85 32.0264 Q1602.19 37.9003 1602.19 48.0275 M1594.74 45.84 Q1594.66 39.7232 1591.3 36.0774 Q1587.97 32.4315 1582.46 32.4315 Q1576.23 32.4315 1572.46 35.9558 Q1568.73 39.4801 1568.16 45.8805 L1594.74 45.84 Z" fill="#000000" fill-rule="evenodd" fill-opacity="1" /><path clip-path="url(#clip940)" d="M1643.35 28.5427 L1643.35 35.5912 Q1640.19 33.9709 1636.79 33.1607 Q1633.38 32.3505 1629.74 32.3505 Q1624.19 32.3505 1621.39 34.0519 Q1618.64 35.7533 1618.64 39.156 Q1618.64 41.7486 1620.62 43.2475 Q1622.61 44.7058 1628.6 46.0426 L1631.16 46.6097 Q1639.1 48.3111 1642.42 51.4303 Q1645.78 54.509 1645.78 60.0587 Q1645.78 66.3781 1640.76 70.0644 Q1635.77 73.7508 1627.02 73.7508 Q1623.38 73.7508 1619.41 73.0216 Q1615.48 72.3329 1611.1 70.9151 L1611.1 63.2184 Q1615.24 65.3654 1619.25 66.4591 Q1623.26 67.5124 1627.19 67.5124 Q1632.45 67.5124 1635.29 65.73 Q1638.12 63.9071 1638.12 60.6258 Q1638.12 57.5877 1636.06 55.9673 Q1634.03 54.3469 1627.11 52.8481 L1624.51 52.2405 Q1617.59 50.7821 1614.51 47.7845 Q1611.43 44.7463 1611.43 39.4801 Q1611.43 33.0797 1615.97 29.5959 Q1620.5 26.1121 1628.85 26.1121 Q1632.98 26.1121 1636.63 26.7198 Q1640.27 27.3274 1643.35 28.5427 Z" fill="#000000" fill-rule="evenodd" fill-opacity="1" /><path clip-path="url(#clip940)" d="M1665.02 14.324 L1665.02 27.2059 L1680.38 27.2059 L1680.38 32.9987 L1665.02 32.9987 L1665.02 57.6282 Q1665.02 63.1779 1666.52 64.7578 Q1668.06 66.3376 1672.72 66.3376 L1680.38 66.3376 L1680.38 72.576 L1672.72 72.576 Q1664.09 72.576 1660.81 69.3758 Q1657.53 66.1351 1657.53 57.6282 L1657.53 32.9987 L1652.06 32.9987 L1652.06 27.2059 L1657.53 27.2059 L1657.53 14.324 L1665.02 14.324 Z" fill="#000000" fill-rule="evenodd" fill-opacity="1" /><path clip-path="url(#clip940)" d="M1690.18 27.2059 L1697.63 27.2059 L1697.63 72.576 L1690.18 72.576 L1690.18 27.2059 M1690.18 9.54393 L1697.63 9.54393 L1697.63 18.9825 L1690.18 18.9825 L1690.18 9.54393 Z" fill="#000000" fill-rule="evenodd" fill-opacity="1" /><path clip-path="url(#clip940)" d="M1748.55 35.9153 Q1751.35 30.8922 1755.24 28.5022 Q1759.12 26.1121 1764.39 26.1121 Q1771.48 26.1121 1775.33 31.0947 Q1779.18 36.0368 1779.18 45.1919 L1779.18 72.576 L1771.68 72.576 L1771.68 45.4349 Q1771.68 38.913 1769.37 35.7533 Q1767.06 32.5936 1762.32 32.5936 Q1756.53 32.5936 1753.17 36.4419 Q1749.81 40.2903 1749.81 46.9338 L1749.81 72.576 L1742.31 72.576 L1742.31 45.4349 Q1742.31 38.8725 1740 35.7533 Q1737.7 32.5936 1732.87 32.5936 Q1727.16 32.5936 1723.8 36.4824 Q1720.44 40.3308 1720.44 46.9338 L1720.44 72.576 L1712.94 72.576 L1712.94 27.2059 L1720.44 27.2059 L1720.44 34.2544 Q1722.99 30.082 1726.56 28.0971 Q1730.12 26.1121 1735.02 26.1121 Q1739.96 26.1121 1743.41 28.6237 Q1746.89 31.1352 1748.55 35.9153 Z" fill="#000000" fill-rule="evenodd" fill-opacity="1" /><path clip-path="url(#clip940)" d="M1814.66 49.7694 Q1805.63 49.7694 1802.15 51.8354 Q1798.66 53.9013 1798.66 58.8839 Q1798.66 62.8538 1801.25 65.2034 Q1803.89 67.5124 1808.38 67.5124 Q1814.58 67.5124 1818.31 63.1374 Q1822.08 58.7219 1822.08 51.4303 L1822.08 49.7694 L1814.66 49.7694 M1829.53 46.6907 L1829.53 72.576 L1822.08 72.576 L1822.08 65.6895 Q1819.52 69.8214 1815.72 71.8063 Q1811.91 73.7508 1806.4 73.7508 Q1799.43 73.7508 1795.3 69.8619 Q1791.21 65.9325 1791.21 59.3701 Q1791.21 51.7138 1796.31 47.825 Q1801.46 43.9361 1811.62 43.9361 L1822.08 43.9361 L1822.08 43.2069 Q1822.08 38.0623 1818.67 35.2672 Q1815.31 32.4315 1809.19 32.4315 Q1805.3 32.4315 1801.62 33.3632 Q1797.93 34.295 1794.53 36.1584 L1794.53 29.2718 Q1798.62 27.692 1802.47 26.9223 Q1806.32 26.1121 1809.96 26.1121 Q1819.81 26.1121 1824.67 31.2163 Q1829.53 36.3204 1829.53 46.6907 Z" fill="#000000" fill-rule="evenodd" fill-opacity="1" /><path clip-path="url(#clip940)" d="M1852.25 14.324 L1852.25 27.2059 L1867.61 27.2059 L1867.61 32.9987 L1852.25 32.9987 L1852.25 57.6282 Q1852.25 63.1779 1853.75 64.7578 Q1855.29 66.3376 1859.95 66.3376 L1867.61 66.3376 L1867.61 72.576 L1859.95 72.576 Q1851.32 72.576 1848.04 69.3758 Q1844.76 66.1351 1844.76 57.6282 L1844.76 32.9987 L1839.29 32.9987 L1839.29 27.2059 L1844.76 27.2059 L1844.76 14.324 L1852.25 14.324 Z" fill="#000000" fill-rule="evenodd" fill-opacity="1" /><path clip-path="url(#clip940)" d="M1877.41 27.2059 L1884.86 27.2059 L1884.86 72.576 L1877.41 72.576 L1877.41 27.2059 M1877.41 9.54393 L1884.86 9.54393 L1884.86 18.9825 L1877.41 18.9825 L1877.41 9.54393 Z" fill="#000000" fill-rule="evenodd" fill-opacity="1" /><path clip-path="url(#clip940)" d="M1918.04 32.4315 Q1912.05 32.4315 1908.56 37.1306 Q1905.08 41.7891 1905.08 49.9314 Q1905.08 58.0738 1908.52 62.7728 Q1912.01 67.4314 1918.04 67.4314 Q1924 67.4314 1927.48 62.7323 Q1930.96 58.0333 1930.96 49.9314 Q1930.96 41.8701 1927.48 37.1711 Q1924 32.4315 1918.04 32.4315 M1918.04 26.1121 Q1927.76 26.1121 1933.31 32.4315 Q1938.86 38.7509 1938.86 49.9314 Q1938.86 61.0714 1933.31 67.4314 Q1927.76 73.7508 1918.04 73.7508 Q1908.28 73.7508 1902.73 67.4314 Q1897.22 61.0714 1897.22 49.9314 Q1897.22 38.7509 1902.73 32.4315 Q1908.28 26.1121 1918.04 26.1121 Z" fill="#000000" fill-rule="evenodd" fill-opacity="1" /><path clip-path="url(#clip940)" d="M1988.93 45.1919 L1988.93 72.576 L1981.48 72.576 L1981.48 45.4349 Q1981.48 38.994 1978.97 35.7938 Q1976.46 32.5936 1971.43 32.5936 Q1965.4 32.5936 1961.91 36.4419 Q1958.43 40.2903 1958.43 46.9338 L1958.43 72.576 L1950.93 72.576 L1950.93 27.2059 L1958.43 27.2059 L1958.43 34.2544 Q1961.1 30.163 1964.71 28.1376 Q1968.35 26.1121 1973.09 26.1121 Q1980.91 26.1121 1984.92 30.9732 Q1988.93 35.7938 1988.93 45.1919 Z" fill="#000000" fill-rule="evenodd" fill-opacity="1" /><polyline clip-path="url(#clip942)" style="stroke:#009af9; stroke-linecap:butt; stroke-linejoin:round; stroke-width:4; stroke-opacity:1; fill:none" points="
  218.101,1351.16 1254.34,1447.87 2290.58,162.047 
  "/>
<circle clip-path="url(#clip942)" cx="218.101" cy="1351.16" r="14" fill="#009af9" fill-rule="evenodd" fill-opacity="1" stroke="#000000" stroke-opacity="1" stroke-width="3.2"/>
<circle clip-path="url(#clip942)" cx="1254.34" cy="1447.87" r="14" fill="#009af9" fill-rule="evenodd" fill-opacity="1" stroke="#000000" stroke-opacity="1" stroke-width="3.2"/>
<circle clip-path="url(#clip942)" cx="2290.58" cy="162.047" r="14" fill="#009af9" fill-rule="evenodd" fill-opacity="1" stroke="#000000" stroke-opacity="1" stroke-width="3.2"/>
</svg>
