<?xml version="1.0" encoding="utf-8"?>
<svg xmlns="http://www.w3.org/2000/svg" xmlns:xlink="http://www.w3.org/1999/xlink" width="600" height="400" viewBox="0 0 2400 1600">
<defs>
  <clipPath id="clip170">
    <rect x="0" y="0" width="2400" height="1600"/>
  </clipPath>
</defs>
<path clip-path="url(#clip170)" d="M0 1600 L2400 1600 L2400 0 L0 0  Z" fill="#ffffff" fill-rule="evenodd" fill-opacity="1"/>
<defs>
  <clipPath id="clip171">
    <rect x="480" y="0" width="1681" height="1600"/>
  </clipPath>
</defs>
<path clip-path="url(#clip170)" d="M35.8002 1486.45 L2321.26 1486.45 L2321.26 47.2441 L35.8002 47.2441  Z" fill="#ffffff" fill-rule="evenodd" fill-opacity="1"/>
<defs>
  <clipPath id="clip172">
    <rect x="35" y="47" width="2286" height="1440"/>
  </clipPath>
</defs>
<path clip-path="url(#clip172)" d="M100.483 87.9763 L1501.94 87.9763 L1501.94 902.62 L100.483 902.62 L100.483 87.9763  Z" fill="#f1a340" fill-rule="evenodd" fill-opacity="0.4"/>
<polyline clip-path="url(#clip172)" style="stroke:#f1a340; stroke-linecap:round; stroke-linejoin:round; stroke-width:8; stroke-opacity:1; fill:none" points="100.483,87.9763 1501.94,87.9763 1501.94,902.62 100.483,902.62 100.483,87.9763 "/>
<path clip-path="url(#clip172)" d="M1609.75 87.9763 L2256.58 87.9763 L2256.58 902.62 L1609.75 902.62 L1609.75 87.9763  Z" fill="#67a9cf" fill-rule="evenodd" fill-opacity="0.4"/>
<polyline clip-path="url(#clip172)" style="stroke:#67a9cf; stroke-linecap:round; stroke-linejoin:round; stroke-width:8; stroke-opacity:1; fill:none" points="1609.75,87.9763 2256.58,87.9763 2256.58,902.62 1609.75,902.62 1609.75,87.9763 "/>
<path clip-path="url(#clip172)" d="M100.483 970.507 L1501.94 970.507 L1501.94 1445.72 L100.483 1445.72 L100.483 970.507  Z" fill="#67a9cf" fill-rule="evenodd" fill-opacity="0.4"/>
<polyline clip-path="url(#clip172)" style="stroke:#67a9cf; stroke-linecap:round; stroke-linejoin:round; stroke-width:8; stroke-opacity:1; fill:none" points="100.483,970.507 1501.94,970.507 1501.94,1445.72 100.483,1445.72 100.483,970.507 "/>
<path clip-path="url(#clip172)" d="M1609.75 970.507 L2256.58 970.507 L2256.58 1445.72 L1609.75 1445.72 L1609.75 970.507  Z" fill="#67a9cf" fill-rule="evenodd" fill-opacity="0.4"/>
<polyline clip-path="url(#clip172)" style="stroke:#fa4430; stroke-linecap:round; stroke-linejoin:round; stroke-width:8; stroke-opacity:1; fill:none" points="1609.75,970.507 2256.58,970.507 2256.58,1445.72 1609.75,1445.72 1609.75,970.507 "/>
<g clip-path="url(#clip170)">
<text style="fill:#000000; fill-opacity:1; font-family:Century Schoolbook,Georgia,serif; font-size:96px; font-weight:bold; text-anchor:middle;" transform="rotate(0, 801.214, 529.798)" x="801.214" y="529.798">Y</text>
</g>
<g clip-path="url(#clip170)">
<text style="fill:#000000; fill-opacity:1; font-family:Century Schoolbook,Georgia,serif; font-size:96px; font-weight:bold; text-anchor:middle;" transform="rotate(0, 1933.16, 529.798)" x="1933.16" y="529.798">X</text>
</g>
<g clip-path="url(#clip170)">
<text style="fill:#000000; fill-opacity:1; font-family:Century Schoolbook,Georgia,serif; font-size:96px; font-weight:bold; text-anchor:middle;" transform="rotate(0, 801.214, 1242.61)" x="801.214" y="1242.61">Z</text>
</g>
<g clip-path="url(#clip170)">
<text style="fill:#000000; fill-opacity:1; font-family:Century Schoolbook,Georgia,serif; font-size:96px; font-weight:bold; text-anchor:middle;" transform="rotate(0, 1933.16, 1242.61)" x="1933.16" y="1242.61">B</text>
</g>
<g clip-path="url(#clip170)">
<text style="fill:#000000; fill-opacity:1; font-family:Century Schoolbook,Georgia,serif; font-size:54px; font-style:italic; font-weight:bold; text-anchor:middle;" transform="rotate(0, 855.116, 1193.67)" x="855.116" y="1193.67">T</text>
</g>
<g clip-path="url(#clip170)">
<text style="fill:#000000; fill-opacity:1; font-family:Century Schoolbook,Georgia,serif; font-size:54px; font-style:italic; font-weight:bold; text-anchor:middle;" transform="rotate(0, 1987.07, 1193.67)" x="1987.07" y="1193.67">T</text>
</g>
<g clip-path="url(#clip170)">
<text style="fill:#808080; fill-opacity:1; font-family:Century Schoolbook,Georgia,serif; font-size:84px; font-style:italic; text-anchor:middle;" transform="rotate(0, 801.214, 647.995)" x="801.214" y="647.995">high-throughput output</text>
</g>
<g clip-path="url(#clip170)">
<text style="fill:#808080; fill-opacity:1; font-family:Century Schoolbook,Georgia,serif; font-size:84px; font-style:italic; text-anchor:start;" transform="rotate(0, 1796.71, 604.142)" x="1796.71" y="604.142">sample</text>
</g>
<g clip-path="url(#clip170)">
<text style="fill:#808080; fill-opacity:1; font-family:Century Schoolbook,Georgia,serif; font-size:84px; font-style:italic; text-anchor:start;" transform="rotate(0, 1653.34, 691.847)" x="1653.34" y="691.847">characteristics</text>
</g>
<g clip-path="url(#clip170)">
<text style="fill:#808080; fill-opacity:1; font-family:Century Schoolbook,Georgia,serif; font-size:84px; font-style:italic; text-anchor:middle;" transform="rotate(0, 801.214, 1360.81)" x="801.214" y="1360.81">feature characteristics</text>
</g>
<g clip-path="url(#clip170)">
<text style="fill:#808080; fill-opacity:1; font-family:Century Schoolbook,Georgia,serif; font-size:84px; font-style:italic; text-anchor:middle;" transform="rotate(0, 1933.16, 1360.81)" x="1933.16" y="1360.81">coefficients</text>
</g>
<g clip-path="url(#clip170)">
<text style="fill:#000000; fill-opacity:1; font-family:Century Schoolbook,Georgia,serif; font-size:84px; font-style:italic; text-anchor:middle;" transform="rotate(0, 2342.82, 525.798)" x="2342.82" y="525.798">n</text>
</g>
<g clip-path="url(#clip170)">
<text style="fill:#000000; fill-opacity:1; font-family:Century Schoolbook,Georgia,serif; font-size:84px; font-style:italic; text-anchor:middle;" transform="rotate(0, 2342.82, 1238.61)" x="2342.82" y="1238.61">q</text>
</g>
<g clip-path="url(#clip170)">
<text style="fill:#000000; fill-opacity:1; font-family:Century Schoolbook,Georgia,serif; font-size:84px; font-style:italic; text-anchor:middle;" transform="rotate(0, 801.214, 1530.53)" x="801.214" y="1530.53">m</text>
</g>
<g clip-path="url(#clip170)">
<text style="fill:#000000; fill-opacity:1; font-family:Century Schoolbook,Georgia,serif; font-size:84px; font-style:italic; text-anchor:middle;" transform="rotate(0, 1933.16, 1530.53)" x="1933.16" y="1530.53">p</text>
</g>
</svg>
